<svg xmlns="http://www.w3.org/2000/svg" width="77" height="21"><desc/><g><g><desc/><path d="M19.884 14.513c.655-.32 1.182-.663 1.582-1.034.4-.372.71-.748.93-1.13.222-.38.37-.752.445-1.117.076-.365.113-.704.113-1.016 0-.486-.107-.823-.322-1.01-.214-.188-.528-.28-.94-.28h-3.36c-.35 0-.64-.035-.874-.104-.234-.07-.42-.168-.562-.3-.14-.13-.24-.29-.3-.477s-.088-.4-.088-.636c0-.48.01-.87.033-1.165.02-.296.064-.552.13-.767.065-.216.156-.418.27-.61.116-.19.27-.415.464-.677.032-.036.05-.066.056-.088.007-.022.01-.04.01-.05 0-.064-.036-.125-.108-.184-.07-.06-.176-.142-.313-.248-.238-.187-.435-.362-.59-.524-.157-.162-.235-.327-.235-.496 0-.093.034-.203.103-.327.07-.125.158-.258.267-.398.11-.14.234-.285.374-.435.14-.15.28-.296.425-.44.056 0 .122.012.196.037.076.025.14.053.188.085-.024.118-.034.216-.027.294.007.078.033.153.08.225.047.073.12.148.215.226.097.078.226.18.39.304.26.2.445.358.55.477.107.12.16.237.16.356 0 .093-.028.195-.084.304-.055.11-.127.22-.215.332-.087.11-.185.227-.294.345-.11.12-.216.234-.322.346-.106.114-.19.22-.253.324-.062.103-.112.212-.15.328-.037.115-.062.243-.075.383-.012.14-.018.3-.018.482 0 .2.012.364.037.492.024.127.076.228.154.303.078.075.19.126.336.154.147.028.34.042.576.042h3.21c.386 0 .717.06.992.177.274.12.5.28.674.482.174.202.302.436.383.7.08.266.122.548.122.848 0 .58-.095 1.215-.286 1.904-.19.69-.47 1.383-.846 2.082-.374.7-.834 1.377-1.38 2.036-.546.658-1.174 1.25-1.885 1.773-.145-.02-.273-.053-.385-.103.056-.356.123-.727.2-1.114.08-.386.162-.758.25-1.113m-6.046 2.367c-.014-.125-.026-.3-.038-.528-.013-.228-.025-.472-.038-.73-.012-.26-.022-.52-.028-.782-.006-.262-.01-.486-.01-.674 0-.642.01-1.193.03-1.65.017-.46.04-.86.064-1.204l.066-.907c.018-.262.028-.518.028-.768 0-.093-.022-.17-.066-.23-.043-.058-.103-.108-.178-.15-.074-.04-.16-.072-.257-.097-.097-.025-.195-.053-.295-.084-.243-.07-.463-.133-.66-.192-.196-.06-.366-.128-.51-.206-.143-.078-.254-.17-.332-.276-.078-.106-.117-.237-.117-.393 0-.088.02-.215.06-.38.04-.165.094-.343.16-.533.065-.19.138-.38.22-.567.08-.187.158-.346.233-.477.05-.03.117-.048.2-.05.086-.004.162 0 .23.013.038.15.09.273.155.37.066.096.155.18.267.247.112.07.25.128.412.178.162.05.36.107.598.17.213.056.387.11.524.16.137.048.243.1.318.153.075.053.126.11.154.173.028.063.042.13.042.206 0 .05-.01.133-.028.248-.02.116-.037.24-.056.37-.03.212-.064.47-.098.772-.035.302-.052.688-.052 1.155 0 .655.03 1.306.09 1.95.058.647.132 1.263.22 1.85l.102.74c.03.23.047.408.047.532 0 .118-.014.212-.04.28-.024.07-.064.14-.12.216-.138.18-.276.368-.417.56-.14.194-.263.372-.37.534-.174.02-.346.02-.514 0M1.944 6.053c.08.18.167.323.257.426.09.102.195.18.314.233.12.053.256.087.412.103.156.016.34.023.552.023h4.407c.393 0 .722.027.988.083.265.057.477.14.636.248.16.11.272.248.338.413.065.166.098.357.098.576 0 .21-.033.443-.098.696-.066.253-.136.528-.21.828 0 .923.04 1.746.12 2.466.082.72.16 1.355.235 1.904l.103.72c.03.22.047.39.047.515 0 .118-.013.212-.038.28-.025.07-.065.14-.122.216-.13.18-.255.36-.374.542-.12.18-.232.365-.338.552-.174.02-.346.02-.514 0-.02-.118-.04-.29-.06-.514-.023-.225-.043-.467-.062-.726-.02-.26-.034-.516-.047-.772-.013-.256-.02-.477-.02-.664 0-.543.002-1.01.005-1.404.003-.393.008-.728.014-1.006.005-.277.012-.51.018-.697.006-.187.012-.35.02-.486l.013-.45c.004-.13.005-.28.005-.448 0-.15-.01-.274-.028-.374-.018-.1-.06-.18-.126-.243-.065-.063-.163-.107-.294-.13-.13-.027-.306-.04-.524-.04H3.237c-.032.488-.052.976-.06 1.466-.01.49-.015.978-.015 1.465 0 .643.006 1.282.018 1.92l.038 1.935c0 .057-.005.11-.014.16-.01.05-.036.09-.08.12-.093.076-.193.156-.3.24l-.303.243c-.096.078-.187.153-.27.225-.085.072-.155.132-.21.182-.157.02-.31.02-.46 0 .063-1.34.137-2.674.225-4 .087-1.326.237-2.647.45-3.963-.182-.013-.35-.033-.502-.06-.153-.03-.285-.076-.397-.14-.113-.067-.2-.156-.262-.268C1.03 8.335 1 8.19 1 8.01c0-.057.012-.148.037-.273.025-.124.06-.27.108-.44.047-.168.103-.353.168-.556.066-.202.136-.406.21-.612.063-.03.132-.053.207-.065.075-.013.147-.016.215-.01z" fill-rule="evenodd" fill="#941003"/></g><g><desc/><path d="M28.258 16.733v-.772l1.172-.196v-8.75l-1.123-.19V6.05h3.93v.773l-1.2.19v3.775h4.948V7.013l-1.137-.19V6.05h3.874v.773l-1.123.19v8.758l1.122.19v.773h-3.86v-.772l1.123-.19V11.7h-4.948v4.07l1.2.19v.773h-3.98m15.39.16c-.595 0-1.115-.102-1.562-.308-.447-.205-.82-.493-1.12-.863-.3-.37-.524-.81-.673-1.323-.15-.513-.225-1.076-.225-1.69 0-.62.094-1.188.28-1.7.188-.513.45-.953.783-1.32.335-.367.73-.652 1.19-.853.458-.2.96-.302 1.502-.302.884 0 1.57.24 2.056.72.487.48.75 1.19.793 2.13.006.304.004.57-.006.796-.01.228-.032.428-.07.602h-4.857v.042c.02.533.096.99.232 1.368.135.38.31.69.53.93.217.24.466.417.746.527.28.108.574.163.877.163.202 0 .405-.018.61-.056.207-.037.405-.086.594-.147.19-.06.363-.13.52-.21.156-.08.286-.16.39-.24l.294.69c-.135.134-.307.265-.515.392-.208.126-.44.237-.694.333-.255.096-.525.173-.81.232-.286.058-.573.087-.864.087m-.175-7.516c-.233 0-.45.04-.652.122-.2.082-.377.222-.53.418-.152.197-.276.46-.372.786-.095.328-.155.74-.178 1.235h3.256c.01-.094.015-.192.017-.295.004-.103.005-.2.005-.288 0-.262-.028-.512-.084-.75-.056-.24-.144-.45-.266-.633-.122-.182-.28-.327-.474-.435-.194-.108-.433-.162-.72-.162m4.877 6.962V6.05l-1.15-.125-.002-.667 2.337-.316h.03l.35.24v4.3c.12-.116.258-.232.41-.346.152-.115.32-.217.506-.306.184-.09.388-.16.61-.214.222-.054.462-.08.72-.08.402 0 .792.073 1.17.22.38.148.715.38 1.005.695.29.317.523.723.7 1.22.174.495.262 1.092.262 1.79 0 .612-.095 1.188-.285 1.73-.19.54-.462 1.01-.817 1.41-.356.4-.788.715-1.3.947-.51.232-1.082.347-1.718.347-.35 0-.688-.02-1.01-.06-.324-.04-.61-.088-.864-.147-.252-.058-.462-.12-.63-.182-.17-.063-.277-.118-.323-.165m3.158-6.73c-.188 0-.363.02-.527.066-.164.044-.312.102-.446.172-.133.07-.252.147-.357.23-.106.086-.193.168-.263.247v5.285c.032.08.09.15.175.207.084.06.187.108.31.147.12.04.256.07.406.092.15.02.31.03.477.03.332 0 .638-.07.916-.21.28-.14.52-.35.723-.63.203-.282.363-.633.48-1.054.117-.42.18-.914.19-1.48.008-.525-.038-.98-.14-1.37-.104-.388-.25-.71-.436-.968-.188-.257-.41-.45-.667-.575-.257-.128-.538-.19-.842-.19m5.003 3.25c0-.586.09-1.14.274-1.66.182-.523.448-.98.796-1.377.35-.395.776-.71 1.28-.94.506-.232 1.077-.348 1.714-.348.234 0 .458.016.673.046.216.03.416.07.6.113.185.045.35.093.495.144.145.052.265.1.358.14l-.07 2.064h-.947l-.315-1.164c-.122-.16-.275-.282-.46-.368-.185-.087-.41-.13-.678-.13-.266 0-.52.06-.764.182s-.46.305-.65.55c-.19.247-.34.553-.456.92-.114.368-.174.797-.178 1.288-.006.632.056 1.17.184 1.615.13.444.3.806.516 1.084.216.278.465.48.75.607.286.126.584.19.893.19.22 0 .426-.02.62-.057.195-.037.374-.086.538-.147.164-.06.314-.13.45-.207.135-.077.255-.153.358-.228l.308.674c-.126.13-.283.257-.47.38-.187.125-.396.236-.628.334-.232.1-.476.178-.733.24-.258.06-.52.09-.787.09-.603 0-1.133-.104-1.59-.312-.455-.208-.837-.492-1.143-.853-.307-.36-.538-.788-.695-1.282-.157-.493-.237-1.023-.242-1.59m7.27 1.77c0-.338.064-.638.19-.902.127-.265.3-.498.52-.7.22-.2.478-.37.775-.51.297-.142.618-.256.962-.345.344-.088.702-.153 1.074-.195.37-.043.74-.068 1.104-.078v-.372c0-.327-.023-.604-.07-.83-.047-.228-.127-.413-.242-.556-.115-.144-.268-.246-.46-.31-.192-.063-.435-.094-.73-.094-.253 0-.505.023-.758.07-.253.047-.494.104-.726.172-.232.068-.445.14-.64.217-.193.078-.356.15-.487.214h-.006l-.315-.674c.087-.085.244-.192.47-.323.223-.13.49-.258.795-.38.307-.12.637-.226.99-.315.353-.09.705-.133 1.056-.133.492 0 .908.05 1.247.15.34.1.614.263.825.485.21.222.36.51.452.863.09.353.137.785.137 1.295v4.576h.87v.68c-.087.024-.194.05-.318.08-.124.032-.254.06-.39.086-.135.025-.273.047-.413.066-.142.02-.275.028-.4.028-.133 0-.246-.005-.342-.017-.096-.012-.174-.042-.235-.09-.06-.05-.106-.124-.137-.223-.03-.098-.046-.23-.046-.4v-.26c-.06.057-.16.14-.298.25-.138.11-.307.22-.51.33-.2.11-.43.206-.687.287-.257.083-.533.124-.828.124-.323 0-.63-.043-.922-.13-.293-.086-.55-.22-.772-.403-.223-.18-.4-.417-.534-.704-.134-.288-.2-.63-.2-1.03m3.03 1.194c.1 0 .216-.012.352-.038.135-.026.276-.062.42-.11.146-.046.29-.104.432-.174.143-.07.273-.148.39-.232v-2.583c-.56 0-1.03.05-1.407.148-.377.1-.677.23-.902.39-.225.162-.384.345-.477.55-.094.207-.14.422-.14.647 0 .257.033.475.1.652.07.177.163.322.282.435.12.112.26.193.424.242.164.05.34.073.527.073m4.914.913v-.772l1.158-.118v-9.79l-1.158-.127v-.667l2.358-.316h.014l.35.246v10.654l1.215.12v.77h-3.936z" fill-rule="evenodd" fill="#333"/></g></g></svg>