<?xml version="1.0"?>
<svg version="1.1" xmlns="http://www.w3.org/2000/svg" xmlns:xlink="http://www.w3.org/1999/xlink" width="192" height="52">
    <desc iVinci="yes" version="4.5" gridStep="20" showGrid="no" snapToGrid="no" codePlatform="0"/>
    <g id="Layer1" opacity="1">
        <g id="Shape1">
            <desc shapeID="1" type="0" basicInfo-basicType="0" basicInfo-roundedRectRadius="12" basicInfo-polygonSides="6" basicInfo-starPoints="5" bounding="rect(-29.0741,-19.9044,58.1482,39.8089)" text="לוח" font-familyName="SBL Hebrew" font-pixelSize="48" font-bold="0" font-underline="0" font-alignment="1" strokeStyle="0" markerStart="0" markerEnd="0" shadowEnabled="0" shadowOffsetX="0" shadowOffsetY="2" shadowBlur="4" shadowOpacity="160" blurEnabled="0" blurRadius="4" transform="matrix(1,0,0,1,32.0741,21.9044)" pers-center="0,0" pers-size="0,0" pers-start="0,0" pers-end="0,0" locked="0" mesh="" flag=""/>
            <path id="shapePath1" d="M50.2972,35.8436 C51.9372,35.0466 53.2582,34.1836 54.2582,33.2536 C55.2582,32.3246 56.0352,31.3826 56.5902,30.4296 C57.1442,29.4766 57.5152,28.5426 57.7032,27.6286 C57.8902,26.7146 57.9842,25.8676 57.9842,25.0856 C57.9842,23.8676 57.7152,23.0236 57.1762,22.5546 C56.6372,22.0856 55.8512,21.8516 54.8202,21.8516 L46.4062,21.8516 C45.5312,21.8516 44.8012,21.7656 44.2152,21.5936 C43.6289,21.4216 43.1602,21.1716 42.8086,20.8436 C42.457,20.5156 42.207,20.1176 42.0586,19.6486 C41.9102,19.1796 41.8359,18.6486 41.8359,18.0546 C41.8359,16.8516 41.8633,15.8786 41.918,15.1366 C41.9727,14.3946 42.082,13.7539 42.2461,13.2149 C42.4102,12.6758 42.6367,12.168 42.9258,11.6914 C43.2148,11.2149 43.6016,10.6485 44.0862,9.99221 C44.1642,9.8985 44.2112,9.82431 44.2262,9.7696 C44.2422,9.7149 44.2502,9.6719 44.2502,9.64071 C44.2502,9.4844 44.1602,9.3321 43.9802,9.18361 C43.8012,9.03521 43.5391,8.82821 43.1953,8.5625 C42.6016,8.09381 42.1094,7.65631 41.7188,7.25 C41.3281,6.84381 41.1328,6.42971 41.1328,6.0078 C41.1328,5.7735 41.2188,5.5 41.3906,5.1875 C41.5625,4.875 41.7852,4.543 42.0586,4.1914 C42.332,3.8399 42.6445,3.4766 42.9961,3.1016 C43.3477,2.7266 43.7031,2.3594 44.0622,2 C44.2032,2 44.3672,2.03131 44.5542,2.09381 C44.7422,2.15631 44.8982,2.2266 45.0232,2.30471 C44.9612,2.6016 44.9372,2.84771 44.9532,3.043 C44.9692,3.23831 45.0352,3.42581 45.1522,3.6055 C45.2692,3.78521 45.4492,3.97271 45.6912,4.168 C45.9332,4.36331 46.2582,4.61721 46.6642,4.92971 C47.3202,5.42971 47.7812,5.82821 48.0472,6.125 C48.3122,6.4219 48.4452,6.71881 48.4452,7.01571 C48.4452,7.25 48.3752,7.5039 48.2342,7.7774 C48.0942,8.05081 47.9142,8.32821 47.6952,8.6094 C47.4762,8.89071 47.2302,9.17971 46.9572,9.47661 C46.6832,9.7735 46.4142,10.0625 46.1482,10.3438 C45.8832,10.625 45.6722,10.8946 45.5152,11.1524 C45.3592,11.4102 45.2342,11.6836 45.1402,11.9727 C45.0472,12.2618 44.9842,12.5821 44.9532,12.9336 C44.9222,13.2852 44.9062,13.6875 44.9062,14.1406 C44.9062,14.6406 44.9372,15.0506 45.0002,15.3716 C45.0622,15.6916 45.1912,15.9456 45.3872,16.1326 C45.5822,16.3206 45.8632,16.4496 46.2302,16.5196 C46.5972,16.5896 47.0782,16.6246 47.6722,16.6246 L55.7112,16.6246 C56.6792,16.6246 57.5082,16.7736 58.1952,17.0706 C58.8832,17.3676 59.4452,17.7696 59.8832,18.2776 C60.3202,18.7856 60.6402,19.3716 60.8442,20.0356 C61.0472,20.6996 61.1482,21.4066 61.1482,22.1566 C61.1482,23.6096 60.9102,25.1996 60.4332,26.9256 C59.9572,28.6526 59.2502,30.3906 58.3122,32.1406 C57.3752,33.8906 56.2222,35.5896 54.8552,37.2386 C53.4882,38.8866 51.9142,40.3676 50.1332,41.6796 C49.7732,41.6326 49.4532,41.5466 49.1722,41.4216 C49.3122,40.5316 49.4802,39.6016 49.6762,38.6326 C49.8712,37.6646 50.0782,36.7346 50.2972,35.8436 M35.1563,41.7736 C35.125,41.4606 35.0938,41.0196 35.0625,40.4496 C35.0313,39.8786 35,39.2696 34.9688,38.6216 C34.9375,37.9726 34.9141,37.3206 34.8984,36.6646 C34.8828,36.0076 34.875,35.4456 34.875,34.9766 C34.875,33.3676 34.8984,31.9886 34.9453,30.8396 C34.9922,29.6916 35.0469,28.6876 35.1094,27.8286 C35.1719,26.9686 35.2266,26.2106 35.2734,25.5546 C35.3203,24.8986 35.3438,24.2576 35.3438,23.6326 C35.3438,23.3986 35.2891,23.2066 35.1797,23.0586 C35.0703,22.9106 34.9219,22.7856 34.7344,22.6836 C34.5469,22.5816 34.332,22.4996 34.0898,22.4376 C33.8477,22.3746 33.6016,22.3046 33.3516,22.2266 C32.7422,22.0546 32.1914,21.8946 31.6992,21.7466 C31.207,21.5976 30.7813,21.4256 30.4219,21.2306 C30.0625,21.0356 29.7852,20.8046 29.5898,20.5386 C29.3945,20.2736 29.2969,19.9456 29.2969,19.5546 C29.2969,19.3356 29.3477,19.0196 29.4492,18.6056 C29.5508,18.1916 29.6836,17.7466 29.8477,17.2696 C30.0117,16.7926 30.1953,16.3206 30.3984,15.8516 C30.6016,15.3826 30.7969,14.9846 30.9844,14.6566 C31.1094,14.5786 31.2773,14.5356 31.4883,14.5276 C31.6992,14.5196 31.8906,14.5316 32.0625,14.5626 C32.1563,14.9376 32.2852,15.2466 32.4492,15.4886 C32.6133,15.7306 32.8359,15.9376 33.1172,16.1096 C33.3984,16.2816 33.7422,16.4296 34.1484,16.5546 C34.5547,16.6796 35.0547,16.8206 35.6484,16.9766 C36.1797,17.1176 36.6172,17.2496 36.9609,17.3746 C37.3047,17.4996 37.5703,17.6286 37.7578,17.7616 C37.9453,17.8946 38.0742,18.0386 38.1445,18.1956 C38.2148,18.3516 38.25,18.5236 38.25,18.7106 C38.25,18.8356 38.2266,19.0426 38.1797,19.3316 C38.1328,19.6216 38.0859,19.9296 38.0391,20.2576 C37.9609,20.7886 37.8789,21.4336 37.793,22.1916 C37.707,22.9496 37.6641,23.9146 37.6641,25.0856 C37.6641,26.7266 37.7383,28.3556 37.8867,29.9726 C38.0352,31.5896 38.2188,33.1326 38.4375,34.6016 C38.5313,35.2576 38.6172,35.8746 38.6953,36.4536 C38.7734,37.0316 38.8125,37.4766 38.8125,37.7886 C38.8125,38.0856 38.7813,38.3206 38.7188,38.4926 C38.6563,38.6646 38.5547,38.8436 38.4141,39.0316 C38.0703,39.4846 37.7227,39.9536 37.3711,40.4376 C37.0195,40.9216 36.7109,41.3676 36.4453,41.7736 C36.0078,41.8206 35.5781,41.8206 35.1563,41.7736 M5.36719,14.6566 C5.57029,15.1096 5.78519,15.4646 6.01169,15.7226 C6.23829,15.9806 6.49999,16.1756 6.79689,16.3086 C7.09379,16.4416 7.43749,16.5276 7.82809,16.5666 C8.21879,16.6056 8.67969,16.6246 9.21089,16.6246 L20.25,16.6246 C21.2344,16.6246 22.0586,16.6956 22.7227,16.8356 C23.3867,16.9766 23.918,17.1836 24.3164,17.4566 C24.7148,17.7306 24.9961,18.0746 25.1602,18.4886 C25.3242,18.9026 25.4063,19.3826 25.4063,19.9296 C25.4063,20.4606 25.3242,21.0426 25.1602,21.6756 C24.9961,22.3086 24.8203,22.9996 24.6328,23.7496 C24.6328,26.0626 24.7344,28.1216 24.9375,29.9256 C25.1406,31.7306 25.3359,33.3206 25.5234,34.6956 C25.6172,35.3516 25.7031,35.9536 25.7813,36.4996 C25.8594,37.0466 25.8984,37.4766 25.8984,37.7886 C25.8984,38.0856 25.8672,38.3206 25.8047,38.4926 C25.7422,38.6646 25.6406,38.8436 25.5,39.0316 C25.1719,39.4846 24.8594,39.9376 24.5625,40.3906 C24.2656,40.8436 23.9844,41.3046 23.7188,41.7736 C23.2813,41.8206 22.8516,41.8206 22.4297,41.7736 C22.3828,41.4766 22.332,41.0466 22.2773,40.4846 C22.2227,39.9216 22.1719,39.3166 22.125,38.6676 C22.0781,38.0196 22.0391,37.3746 22.0078,36.7346 C21.9766,36.0936 21.9609,35.5386 21.9609,35.0706 C21.9609,33.7106 21.9648,32.5386 21.9727,31.5546 C21.9805,30.5706 21.9922,29.7306 22.0078,29.0356 C22.0234,28.3396 22.0391,27.7576 22.0547,27.2886 C22.0703,26.8206 22.0859,26.4146 22.1016,26.0706 C22.1172,25.6486 22.1289,25.2736 22.1367,24.9456 C22.1445,24.6176 22.1484,24.2426 22.1484,23.8206 C22.1484,23.4456 22.125,23.1326 22.0781,22.8826 C22.0313,22.6326 21.9258,22.4296 21.7617,22.2736 C21.5977,22.1176 21.3516,22.0076 21.0234,21.9456 C20.6953,21.8826 20.2578,21.8516 19.7109,21.8516 L8.60159,21.8516 C8.52339,23.0706 8.47269,24.2926 8.44919,25.5196 C8.42579,26.7466 8.41409,27.9686 8.41409,29.1876 C8.41409,30.7966 8.42969,32.3986 8.46089,33.9926 C8.49219,35.5856 8.52339,37.2036 8.55469,38.8436 C8.55469,38.9846 8.54299,39.1176 8.51949,39.2426 C8.49609,39.3676 8.42969,39.4686 8.32029,39.5466 C8.08589,39.7346 7.83589,39.9336 7.57029,40.1446 C7.30469,40.3556 7.05079,40.5586 6.80859,40.7536 C6.56639,40.9496 6.33979,41.1366 6.12889,41.3166 C5.91799,41.4966 5.74219,41.6486 5.60159,41.7736 C5.21089,41.8206 4.82809,41.8206 4.45309,41.7736 C4.60939,38.4146 4.79689,35.0746 5.01559,31.7536 C5.23439,28.4336 5.60939,25.1246 6.14059,21.8286 C5.68749,21.7966 5.26949,21.7466 4.88669,21.6756 C4.50389,21.6056 4.17189,21.4886 3.89059,21.3246 C3.60939,21.1606 3.39059,20.9376 3.23439,20.6566 C3.07809,20.3746 2.99999,20.0076 2.99999,19.5546 C2.99999,19.4146 3.03129,19.1876 3.09379,18.8746 C3.15629,18.5626 3.24609,18.1956 3.36329,17.7736 C3.48049,17.3516 3.62109,16.8866 3.78519,16.3786 C3.94919,15.8716 4.12499,15.3596 4.31249,14.8436 C4.46879,14.7656 4.64059,14.7106 4.82809,14.6796 C5.01559,14.6486 5.19529,14.6406 5.36719,14.6566 Z" style="stroke:none;fill-rule:evenodd;fill:#941003;fill-opacity:1;"/>
        </g>
        <g id="Shape2">
            <desc shapeID="2" type="0" basicInfo-basicType="0" basicInfo-roundedRectRadius="12" basicInfo-polygonSides="6" basicInfo-starPoints="5" bounding="rect(-59.3633,-14.9678,118.727,29.9355)" text="Hebcal" font-familyName="Merriweather" font-pixelSize="36" font-bold="0" font-underline="0" font-alignment="1" strokeStyle="0" markerStart="0" markerEnd="0" shadowEnabled="0" shadowOffsetX="0" shadowOffsetY="2" shadowBlur="4" shadowOpacity="160" blurEnabled="0" blurRadius="4" transform="matrix(1,0,0,1,130.632,26.8411)" pers-center="0,0" pers-size="0,0" pers-start="0,0" pers-end="0,0" locked="0" mesh="" flag=""/>
            <path id="shapePath2" d="M71.2692,41.4046 L71.2692,39.471 L74.2047,38.9788 L74.2047,17.0589 L71.3922,16.5843 L71.3922,14.6507 L81.236,14.6507 L81.236,16.5843 L78.2301,17.0589 L78.2301,26.5159 L90.6227,26.5159 L90.6227,17.0589 L87.7751,16.5843 L87.7751,14.6507 L97.4782,14.6507 L97.4782,16.5843 L94.6657,17.0589 L94.6657,38.9964 L97.4782,39.471 L97.4782,41.4046 L87.8102,41.4046 L87.8102,39.471 L90.6227,38.9964 L90.6227,28.801 L78.2301,28.801 L78.2301,38.9964 L81.236,39.471 L81.236,41.4046 L71.2692,41.4046 M109.812,41.8089 C108.324,41.8089 107.02,41.551 105.901,41.0354 C104.782,40.5198 103.847,39.7991 103.097,38.8733 C102.347,37.9475 101.785,36.843 101.41,35.5598 C101.035,34.2766 100.847,32.8675 100.847,31.3323 C100.847,29.7737 101.082,28.3528 101.55,27.0696 C102.019,25.7864 102.673,24.6848 103.51,23.7649 C104.348,22.845 105.341,22.1331 106.49,21.6292 C107.638,21.1253 108.892,20.8733 110.252,20.8733 C112.466,20.8733 114.183,21.4739 115.402,22.6751 C116.621,23.8762 117.283,25.6546 117.388,28.01 C117.4,28.7718 117.394,29.4368 117.371,30.0051 C117.347,30.5735 117.289,31.0745 117.195,31.5081 L105.031,31.5081 L105.031,31.6135 C105.078,32.9495 105.271,34.0921 105.611,35.0413 C105.951,35.9905 106.393,36.7669 106.938,37.3704 C107.483,37.9739 108.107,38.4134 108.81,38.6887 C109.513,38.9641 110.246,39.1018 111.007,39.1018 C111.511,39.1018 112.021,39.055 112.537,38.9612 C113.052,38.8675 113.548,38.7444 114.022,38.5921 C114.497,38.4397 114.93,38.2639 115.323,38.0647 C115.715,37.8655 116.041,37.6663 116.298,37.4671 L117.037,39.1897 C116.697,39.5296 116.266,39.8577 115.745,40.1741 C115.223,40.4905 114.643,40.7688 114.005,41.0091 C113.366,41.2493 112.689,41.4426 111.974,41.5891 C111.259,41.7356 110.539,41.8089 109.812,41.8089 M109.373,22.9827 C108.787,22.9827 108.242,23.0852 107.738,23.2903 C107.234,23.4954 106.792,23.844 106.411,24.3362 C106.03,24.8284 105.719,25.4846 105.479,26.305 C105.239,27.1253 105.09,28.1565 105.031,29.3987 L113.187,29.3987 C113.211,29.1643 113.225,28.9182 113.231,28.6604 C113.237,28.4026 113.24,28.1624 113.24,27.9397 C113.24,27.2835 113.17,26.6565 113.029,26.0589 C112.888,25.4612 112.666,24.9339 112.361,24.4768 C112.056,24.0198 111.661,23.6565 111.174,23.387 C110.688,23.1175 110.088,22.9827 109.373,22.9827 M121.584,40.4202 L121.584,14.6507 L118.701,14.3343 L118.701,12.6643 L124.554,11.8733 L124.625,11.8733 L125.504,12.471 L125.504,23.2464 C125.808,22.9534 126.151,22.6634 126.532,22.3762 C126.913,22.0891 127.335,21.8343 127.798,21.6116 C128.26,21.3889 128.77,21.2102 129.327,21.0755 C129.883,20.9407 130.484,20.8733 131.129,20.8733 C132.136,20.8733 133.115,21.0579 134.064,21.427 C135.013,21.7962 135.851,22.3762 136.578,23.1673 C137.304,23.9583 137.887,24.9749 138.327,26.2171 C138.766,27.4593 138.986,28.9534 138.986,30.6995 C138.986,32.2346 138.749,33.679 138.274,35.0325 C137.799,36.386 137.117,37.5637 136.226,38.5657 C135.336,39.5676 134.252,40.3587 132.974,40.9387 C131.697,41.5188 130.261,41.8089 128.668,41.8089 C127.789,41.8089 126.945,41.7591 126.136,41.6594 C125.328,41.5598 124.607,41.4368 123.974,41.2903 C123.341,41.1438 122.814,40.9915 122.392,40.8333 C121.97,40.6751 121.701,40.5374 121.584,40.4202 M129.494,23.5628 C129.025,23.5628 128.586,23.6184 128.175,23.7298 C127.765,23.8411 127.393,23.9846 127.059,24.1604 C126.725,24.3362 126.426,24.5296 126.163,24.7405 C125.899,24.9514 125.679,25.1565 125.504,25.3557 L125.504,38.5921 C125.586,38.7913 125.732,38.9641 125.943,39.1106 C126.154,39.2571 126.412,39.3801 126.716,39.4798 C127.021,39.5794 127.361,39.6555 127.736,39.7083 C128.111,39.761 128.509,39.7874 128.931,39.7874 C129.763,39.7874 130.528,39.6116 131.225,39.26 C131.923,38.9085 132.526,38.3811 133.036,37.678 C133.546,36.9749 133.947,36.096 134.24,35.0413 C134.533,33.9866 134.691,32.7503 134.715,31.3323 C134.738,30.0198 134.621,28.8772 134.363,27.9046 C134.105,26.9319 133.742,26.1233 133.273,25.4788 C132.804,24.8343 132.248,24.3538 131.603,24.0374 C130.959,23.721 130.256,23.5628 129.494,23.5628 M142.025,31.7014 C142.025,30.2366 142.254,28.8509 142.711,27.5442 C143.168,26.2376 143.833,25.0891 144.706,24.0989 C145.579,23.1087 146.648,22.3235 147.914,21.7434 C149.179,21.1634 150.609,20.8733 152.203,20.8733 C152.789,20.8733 153.351,20.9114 153.89,20.9876 C154.429,21.0637 154.93,21.1575 155.393,21.2688 C155.856,21.3801 156.269,21.5003 156.632,21.6292 C156.996,21.7581 157.295,21.8753 157.529,21.9807 L157.353,27.1487 L154.98,27.1487 L154.189,24.2307 C153.884,23.8323 153.501,23.5247 153.038,23.3079 C152.575,23.0911 152.009,22.9827 151.341,22.9827 C150.673,22.9827 150.035,23.135 149.425,23.4397 C148.816,23.7444 148.274,24.2044 147.799,24.8196 C147.325,25.4348 146.944,26.2024 146.657,27.1223 C146.37,28.0423 146.22,29.1175 146.209,30.3479 C146.197,31.93 146.352,33.2776 146.674,34.3909 C146.997,35.5042 147.427,36.4094 147.966,37.1067 C148.506,37.804 149.132,38.3108 149.847,38.6272 C150.562,38.9436 151.306,39.1018 152.08,39.1018 C152.631,39.1018 153.149,39.055 153.635,38.9612 C154.122,38.8675 154.57,38.7444 154.98,38.5921 C155.39,38.4397 155.765,38.2669 156.105,38.0735 C156.445,37.8801 156.744,37.6897 157.002,37.5022 L157.775,39.1897 C157.459,39.5178 157.066,39.8372 156.597,40.1477 C156.129,40.4583 155.604,40.7366 155.024,40.9827 C154.444,41.2288 153.832,41.428 153.187,41.5803 C152.543,41.7327 151.886,41.8089 151.218,41.8089 C149.707,41.8089 148.38,41.5481 147.237,41.0266 C146.094,40.5051 145.139,39.7932 144.372,38.8909 C143.604,37.9885 143.024,36.9192 142.632,35.6829 C142.239,34.4466 142.037,33.1194 142.025,31.7014 M160.236,36.1311 C160.236,35.2874 160.394,34.5344 160.711,33.8723 C161.027,33.2102 161.461,32.6272 162.011,32.1233 C162.562,31.6194 163.21,31.1917 163.954,30.8401 C164.698,30.4885 165.501,30.2014 166.362,29.9788 C167.223,29.7561 168.12,29.5921 169.051,29.4866 C169.983,29.3811 170.906,29.3167 171.82,29.2932 L171.82,28.3616 C171.82,27.5413 171.761,26.8469 171.644,26.2786 C171.527,25.7102 171.325,25.2473 171.038,24.8899 C170.751,24.5325 170.367,24.2747 169.886,24.1165 C169.406,23.9583 168.797,23.8792 168.058,23.8792 C167.425,23.8792 166.793,23.9378 166.16,24.055 C165.527,24.1721 164.921,24.3157 164.34,24.4856 C163.76,24.6555 163.227,24.8372 162.741,25.0305 C162.255,25.2239 161.847,25.4026 161.519,25.5667 L161.502,25.5667 L160.711,23.8792 C160.933,23.6682 161.326,23.3987 161.888,23.0706 C162.451,22.7425 163.116,22.426 163.883,22.1214 C164.651,21.8167 165.477,21.553 166.362,21.3303 C167.247,21.1077 168.129,20.9964 169.007,20.9964 C170.238,20.9964 171.278,21.1223 172.128,21.3743 C172.977,21.6262 173.666,22.0305 174.193,22.5872 C174.72,23.1438 175.098,23.8645 175.327,24.7493 C175.555,25.6341 175.67,26.7151 175.67,27.9925 L175.67,39.4534 L177.849,39.4534 L177.849,41.1585 C177.627,41.2171 177.36,41.2844 177.049,41.3606 C176.739,41.4368 176.414,41.5071 176.074,41.5716 C175.734,41.636 175.388,41.6917 175.037,41.7385 C174.685,41.7854 174.351,41.8089 174.035,41.8089 C173.707,41.8089 173.423,41.7942 173.182,41.7649 C172.942,41.7356 172.746,41.6594 172.593,41.5364 C172.441,41.4134 172.327,41.2288 172.251,40.9827 C172.174,40.7366 172.136,40.4026 172.136,39.9807 L172.136,39.3303 C171.984,39.471 171.735,39.679 171.389,39.9544 C171.044,40.2298 170.619,40.5051 170.115,40.7805 C169.611,41.0559 169.037,41.2962 168.392,41.5012 C167.748,41.7063 167.056,41.8089 166.318,41.8089 C165.509,41.8089 164.739,41.7005 164.007,41.4837 C163.274,41.2669 162.63,40.93 162.073,40.4729 C161.516,40.0159 161.071,39.427 160.737,38.7063 C160.403,37.9856 160.236,37.1272 160.236,36.1311 M167.83,39.1194 C168.076,39.1194 168.369,39.0872 168.709,39.0227 C169.048,38.9583 169.4,38.8675 169.763,38.7503 C170.127,38.6331 170.487,38.4866 170.844,38.3108 C171.202,38.135 171.527,37.9417 171.82,37.7307 L171.82,31.262 C170.414,31.262 169.239,31.385 168.296,31.6311 C167.352,31.8772 166.599,32.2024 166.037,32.6067 C165.474,33.011 165.076,33.471 164.841,33.9866 C164.607,34.5022 164.49,35.0413 164.49,35.6038 C164.49,36.2483 164.575,36.7932 164.745,37.2385 C164.915,37.6839 165.149,38.0471 165.448,38.3284 C165.747,38.6096 166.101,38.8118 166.511,38.9348 C166.922,39.0579 167.361,39.1194 167.83,39.1194 M180.134,41.4046 L180.134,39.471 L183.035,39.1721 L183.035,14.6507 L180.134,14.3343 L180.134,12.6643 L186.041,11.8733 L186.076,11.8733 L186.955,12.4885 L186.955,39.1721 L189.996,39.471 L189.996,41.4046 L180.134,41.4046 Z" style="stroke:none;fill-rule:nonzero;fill:#333333;fill-opacity:1;"/>
        </g>
    </g>
</svg>
