<?xml version="1.0"?>
<svg version="1.1" xmlns="http://www.w3.org/2000/svg" xmlns:xlink="http://www.w3.org/1999/xlink" width="77" height="21">
    <desc iVinci="yes" version="4.5" gridStep="20" showGrid="no" snapToGrid="no" codePlatform="0"/>
    <g id="Layer1" opacity="1">
        <g id="Shape1">
            <desc shapeID="1" type="0" basicInfo-basicType="0" basicInfo-roundedRectRadius="12" basicInfo-polygonSides="6" basicInfo-starPoints="5" bounding="rect(-29.0741,-19.9044,58.1482,39.8088)" text="לוח" font-familyName="SBL Hebrew" font-pixelSize="48" font-bold="0" font-underline="0" font-alignment="1" strokeStyle="0" markerStart="0" markerEnd="0" shadowEnabled="0" shadowOffsetX="0" shadowOffsetY="2" shadowBlur="4" shadowOpacity="160" blurEnabled="0" blurRadius="4" transform="matrix(0.399266,0,0,0.399266,12.6083,8.94714)" pers-center="0,0" pers-size="0,0" pers-start="0,0" pers-end="0,0" locked="0" mesh="" flag=""/>
            <path id="shapePath1" d="M19.8842,14.5126 C20.539,14.1944 21.0664,13.8498 21.4657,13.4785 C21.8649,13.1076 22.1752,12.7315 22.3967,12.351 C22.6179,11.9705 22.7661,11.5976 22.8411,11.2326 C22.9158,10.8677 22.9533,10.5295 22.9533,10.2173 C22.9533,9.73099 22.8459,9.39401 22.6307,9.20675 C22.4155,9.0195 22.1017,8.92607 21.69,8.92607 L18.3306,8.92607 C17.9813,8.92607 17.6898,8.89173 17.4558,8.82306 C17.2217,8.75438 17.0346,8.65457 16.8942,8.52361 C16.7538,8.39265 16.654,8.23374 16.5948,8.04649 C16.5355,7.85923 16.5059,7.64722 16.5059,7.41006 C16.5059,6.92974 16.5168,6.54125 16.5386,6.245 C16.5605,5.94874 16.6041,5.69293 16.6696,5.47773 C16.7352,5.26248 16.8256,5.05974 16.941,4.86945 C17.0564,4.6792 17.2108,4.45305 17.4043,4.19102 C17.4355,4.1536 17.4542,4.12398 17.4602,4.10214 C17.4666,4.0803 17.4698,4.06313 17.4698,4.05068 C17.4698,3.98827 17.4339,3.92746 17.362,3.86817 C17.2905,3.80892 17.1859,3.72627 17.0486,3.62018 C16.8116,3.43305 16.6151,3.25837 16.4591,3.09615 C16.3031,2.93397 16.2251,2.76863 16.2251,2.60018 C16.2251,2.50663 16.2595,2.39743 16.3281,2.27266 C16.3967,2.14789 16.4856,2.01533 16.5948,1.87495 C16.7039,1.73461 16.8287,1.58956 16.9691,1.43983 C17.1095,1.29011 17.2514,1.1435 17.3947,1 C17.451,1 17.5165,1.0125 17.5912,1.03746 C17.6662,1.06241 17.7285,1.09047 17.7784,1.12166 C17.7537,1.2402 17.7441,1.33846 17.7505,1.41643 C17.7569,1.49442 17.7832,1.56928 17.8299,1.64102 C17.8767,1.71277 17.9485,1.78764 18.0451,1.86561 C18.1418,1.94359 18.2715,2.04496 18.4336,2.16973 C18.6956,2.36937 18.8796,2.52847 18.9858,2.64697 C19.0916,2.76551 19.1447,2.88406 19.1447,3.0026 C19.1447,3.09615 19.1168,3.19752 19.0605,3.30672 C19.0046,3.41588 18.9327,3.52664 18.8453,3.63891 C18.7578,3.75123 18.6596,3.86661 18.5506,3.98516 C18.4412,4.10369 18.3338,4.21908 18.2276,4.3314 C18.1218,4.44367 18.0376,4.55131 17.9749,4.65424 C17.9126,4.75717 17.8627,4.86633 17.8252,4.98176 C17.788,5.09719 17.7629,5.22507 17.7505,5.36542 C17.7381,5.5058 17.7317,5.66642 17.7317,5.84733 C17.7317,6.04696 17.7441,6.21066 17.7693,6.33883 C17.794,6.46659 17.8455,6.568 17.9238,6.64267 C18.0016,6.71773 18.1138,6.76923 18.2604,6.79718 C18.4069,6.82513 18.5989,6.83911 18.8361,6.83911 L22.0458,6.83911 C22.4323,6.83911 22.7633,6.8986 23.0376,7.01718 C23.3123,7.13576 23.5367,7.29627 23.7115,7.49909 C23.886,7.70192 24.0138,7.93589 24.0952,8.201 C24.1763,8.46611 24.2166,8.7484 24.2166,9.04785 C24.2166,9.62798 24.1216,10.2628 23.9311,10.9519 C23.7411,11.6415 23.4588,12.3354 23.0843,13.0341 C22.7102,13.7328 22.2498,14.4112 21.704,15.0696 C21.1582,15.7276 20.5298,16.3189 19.8187,16.8427 C19.6749,16.8239 19.5472,16.7896 19.435,16.7397 C19.4909,16.3844 19.558,16.013 19.6362,15.6262 C19.7141,15.2397 19.7967,14.8683 19.8842,14.5126 M13.8389,16.8802 C13.8264,16.7553 13.814,16.5792 13.8015,16.3516 C13.789,16.1236 13.7765,15.8805 13.7641,15.6218 C13.7516,15.3626 13.7422,15.1023 13.7359,14.8404 C13.7297,14.5781 13.7266,14.3537 13.7266,14.1664 C13.7266,13.524 13.7359,12.9734 13.7547,12.5147 C13.7734,12.0563 13.7952,11.6555 13.8202,11.3125 C13.8451,10.9691 13.867,10.6665 13.8857,10.4046 C13.9044,10.1426 13.9138,9.8867 13.9138,9.63716 C13.9138,9.54373 13.8919,9.46708 13.8483,9.40798 C13.8046,9.34889 13.7453,9.29898 13.6705,9.25826 C13.5956,9.21753 13.5098,9.18479 13.4131,9.16004 C13.3164,9.13488 13.2182,9.10694 13.1184,9.07579 C12.875,9.00712 12.6551,8.94324 12.4586,8.88415 C12.2621,8.82466 12.0921,8.75598 11.9486,8.67813 C11.8051,8.60027 11.6944,8.50804 11.6164,8.40183 C11.5384,8.29603 11.4995,8.16507 11.4995,8.00896 C11.4995,7.92152 11.5197,7.79535 11.5603,7.63005 C11.6008,7.46476 11.6539,7.28708 11.7194,7.09663 C11.7849,6.90618 11.8582,6.71773 11.9392,6.53047 C12.0204,6.34322 12.0984,6.18431 12.1732,6.05335 C12.2231,6.02221 12.2902,6.00504 12.3744,6.00185 C12.4586,5.99865 12.535,6.00344 12.6037,6.01582 C12.6411,6.16554 12.6926,6.28892 12.7581,6.38554 C12.8236,6.48216 12.9125,6.56481 13.0248,6.63348 C13.137,6.70216 13.2743,6.76125 13.4365,6.81116 C13.5987,6.86107 13.7984,6.91736 14.0354,6.97965 C14.2475,7.03594 14.4222,7.08865 14.5594,7.13856 C14.6967,7.18846 14.8027,7.23997 14.8776,7.29307 C14.9525,7.34617 15.0039,7.40367 15.032,7.46635 C15.0601,7.52864 15.0741,7.59731 15.0741,7.67198 C15.0741,7.72188 15.0648,7.80453 15.0461,7.91992 C15.0273,8.03571 15.0086,8.15868 14.9899,8.28964 C14.9587,8.50165 14.926,8.75918 14.8917,9.06182 C14.8573,9.36446 14.8402,9.74975 14.8402,10.2173 C14.8402,10.8725 14.8698,11.5229 14.9291,12.1685 C14.9884,12.8141 15.0617,13.4302 15.149,14.0167 C15.1864,14.2786 15.2207,14.525 15.2519,14.7562 C15.2831,14.9869 15.2987,15.1646 15.2987,15.2892 C15.2987,15.4078 15.2863,15.5016 15.2613,15.5703 C15.2363,15.6389 15.1958,15.7104 15.1396,15.7855 C15.0024,15.9663 14.8636,16.1536 14.7232,16.3468 C14.5828,16.5401 14.4596,16.7181 14.3536,16.8802 C14.1789,16.899 14.0073,16.899 13.8389,16.8802 M1.94514,6.05335 C2.02623,6.23422 2.11203,6.37596 2.20247,6.47897 C2.29294,6.58198 2.39743,6.65984 2.51597,6.71294 C2.63451,6.76604 2.77174,6.80038 2.92769,6.81595 C3.08368,6.83152 3.26771,6.83911 3.4798,6.83911 L7.88734,6.83911 C8.28038,6.83911 8.60945,6.86745 8.8746,6.92335 C9.13972,6.97965 9.35185,7.0623 9.51091,7.1713 C9.66998,7.28069 9.78229,7.41804 9.84781,7.58334 C9.91329,7.74863 9.94607,7.94028 9.94607,8.15868 C9.94607,8.37069 9.91329,8.60306 9.84781,8.8558 C9.78229,9.10853 9.7121,9.38443 9.63724,9.68388 C9.63724,10.6074 9.67781,11.4295 9.7589,12.1497 C9.83999,12.8704 9.91796,13.5053 9.99283,14.0542 C10.0303,14.3162 10.0646,14.5565 10.0958,14.7745 C10.127,14.9929 10.1426,15.1646 10.1426,15.2892 C10.1426,15.4078 10.1301,15.5016 10.1051,15.5703 C10.0802,15.6389 10.0396,15.7104 9.98349,15.7855 C9.85249,15.9663 9.72771,16.1472 9.60917,16.3281 C9.49063,16.5089 9.37836,16.693 9.27231,16.8802 C9.09763,16.899 8.92607,16.899 8.75762,16.8802 C8.73889,16.7617 8.71861,16.59 8.69677,16.3656 C8.67497,16.1408 8.65469,15.8993 8.63596,15.6401 C8.61724,15.3814 8.60167,15.1239 8.58917,14.8683 C8.57671,14.6124 8.57044,14.3908 8.57044,14.204 C8.57044,13.661 8.572,13.193 8.57515,12.8001 C8.57827,12.4073 8.58294,12.0719 8.58917,11.7944 C8.5954,11.5165 8.60167,11.2841 8.60789,11.0969 C8.61412,10.91 8.62035,10.7479 8.62662,10.6106 C8.63285,10.4421 8.63752,10.2924 8.64063,10.1614 C8.64375,10.0304 8.6453,9.88071 8.6453,9.71222 C8.6453,9.5625 8.63596,9.43753 8.61724,9.33771 C8.59855,9.2379 8.55643,9.15685 8.49091,9.09456 C8.42543,9.03227 8.32717,8.98836 8.19613,8.9636 C8.06513,8.93845 7.89045,8.92607 7.67209,8.92607 L3.23652,8.92607 C3.2053,9.41278 3.18506,9.90068 3.17568,10.3906 C3.16633,10.8805 3.16166,11.3684 3.16166,11.8551 C3.16166,12.4975 3.16789,13.1371 3.18035,13.7736 C3.19284,14.4096 3.2053,15.0556 3.2178,15.7104 C3.2178,15.7667 3.21313,15.8198 3.20374,15.8697 C3.1944,15.9196 3.16789,15.9599 3.12421,15.9911 C3.03062,16.0661 2.93081,16.1456 2.82476,16.2298 C2.71872,16.3141 2.61734,16.3951 2.52064,16.473 C2.42394,16.5513 2.33346,16.6259 2.24926,16.6978 C2.16505,16.7696 2.09486,16.8303 2.03872,16.8802 C1.88273,16.899 1.72989,16.899 1.58017,16.8802 C1.64257,15.5391 1.71744,14.2056 1.80476,12.8796 C1.89211,11.554 2.04184,10.2329 2.25393,8.91689 C2.07302,8.90411 1.90613,8.88415 1.75329,8.8558 C1.60045,8.82785 1.46789,8.78114 1.35558,8.71566 C1.24331,8.65018 1.15595,8.56114 1.09358,8.44895 C1.03118,8.33635 0.999995,8.18982 0.999995,8.00896 C0.999995,7.95306 1.01249,7.86242 1.03745,7.73745 C1.0624,7.61288 1.09825,7.46635 1.14505,7.29786 C1.19184,7.12937 1.24798,6.94371 1.3135,6.74089 C1.37898,6.53846 1.44917,6.33403 1.52403,6.12801 C1.58644,6.09687 1.65503,6.07491 1.72989,6.06253 C1.80476,6.05016 1.8765,6.04696 1.94514,6.05335 Z" style="stroke:none;fill-rule:evenodd;fill:#941003;fill-opacity:1;"/>
        </g>
        <g id="Shape2">
            <desc shapeID="2" type="0" basicInfo-basicType="0" basicInfo-roundedRectRadius="12" basicInfo-polygonSides="6" basicInfo-starPoints="5" bounding="rect(-59.3632,-14.9678,118.727,29.9356)" text="Hebcal" font-familyName="Merriweather" font-pixelSize="36" font-bold="0" font-underline="0" font-alignment="1" strokeStyle="0" markerStart="0" markerEnd="0" shadowEnabled="0" shadowOffsetX="0" shadowOffsetY="2" shadowBlur="4" shadowOpacity="160" blurEnabled="0" blurRadius="4" transform="matrix(0.399266,0,0,0.399266,51.9593,10.9182)" pers-center="0,0" pers-size="0,0" pers-start="0,0" pers-end="0,0" locked="0" mesh="" flag=""/>
            <path id="shapePath2" d="M28.2576,16.7329 L28.2576,15.9609 L29.4296,15.7644 L29.4296,7.01251 L28.3067,6.82302 L28.3067,6.05099 L32.237,6.05099 L32.237,6.82302 L31.0368,7.01251 L31.0368,10.7884 L35.9848,10.7884 L35.9848,7.01251 L34.8478,6.82302 L34.8478,6.05099 L38.7219,6.05099 L38.7219,6.82302 L37.599,7.01251 L37.599,15.7714 L38.7219,15.9609 L38.7219,16.7329 L34.8618,16.7329 L34.8618,15.9609 L35.9848,15.7714 L35.9848,11.7007 L31.0368,11.7007 L31.0368,15.7714 L32.237,15.9609 L32.237,16.7329 L28.2576,16.7329 M43.6464,16.8943 C43.0523,16.8943 42.5317,16.7914 42.0849,16.5855 C41.6381,16.3796 41.2648,16.0919 40.9653,15.7223 C40.6659,15.3526 40.4415,14.9116 40.2918,14.3993 C40.142,13.8869 40.067,13.3243 40.067,12.7114 C40.067,12.0891 40.1608,11.5218 40.3477,11.0094 C40.5349,10.4971 40.796,10.0573 41.1302,9.68999 C41.4648,9.3227 41.8613,9.03846 42.32,8.83727 C42.7784,8.63608 43.2791,8.53547 43.8221,8.53547 C44.7061,8.53547 45.3916,8.77527 45.8783,9.25487 C46.365,9.73442 46.6293,10.4445 46.6712,11.3849 C46.676,11.6891 46.6736,11.9546 46.6645,12.1815 C46.6549,12.4084 46.6317,12.6085 46.5942,12.7816 L41.7375,12.7816 L41.7375,12.8237 C41.7563,13.3571 41.8333,13.8133 41.9691,14.1923 C42.1048,14.5713 42.2813,14.8812 42.4989,15.1222 C42.7165,15.3632 42.9657,15.5386 43.2463,15.6486 C43.527,15.7585 43.8197,15.8135 44.1235,15.8135 C44.3248,15.8135 44.5284,15.7948 44.7344,15.7574 C44.94,15.7199 45.1381,15.6708 45.3273,15.61 C45.517,15.5491 45.6898,15.4789 45.8468,15.3994 C46.0033,15.3199 46.1334,15.2403 46.236,15.1608 L46.5311,15.8486 C46.3954,15.9843 46.2233,16.1153 46.0153,16.2416 C45.8068,16.3679 45.5753,16.4791 45.3205,16.575 C45.0654,16.6709 44.7951,16.7481 44.5096,16.8066 C44.2241,16.8651 43.9367,16.8943 43.6464,16.8943 M43.4711,9.37768 C43.2372,9.37768 43.0196,9.4186 42.8183,9.50049 C42.6171,9.58238 42.4406,9.72157 42.2885,9.91809 C42.1364,10.1146 42.0122,10.3766 41.9164,10.7042 C41.8206,11.0317 41.7611,11.4434 41.7375,11.9394 L44.9939,11.9394 C45.0035,11.8458 45.0091,11.7475 45.0115,11.6446 C45.0139,11.5417 45.0151,11.4458 45.0151,11.3568 C45.0151,11.0948 44.9871,10.8445 44.9308,10.6059 C44.8745,10.3673 44.7859,10.1567 44.6641,9.97422 C44.5424,9.79176 44.3847,9.6467 44.1902,9.5391 C43.9962,9.4315 43.7566,9.37768 43.4711,9.37768 M48.3466,16.3399 L48.3466,6.05099 L47.1955,5.92467 L47.1955,5.25789 L49.5324,4.94207 L49.5607,4.94207 L49.9117,5.18072 L49.9117,9.48297 C50.0331,9.36598 50.17,9.25019 50.3221,9.13552 C50.4743,9.0209 50.6427,8.91916 50.8276,8.83025 C51.0121,8.74133 51.2157,8.66998 51.4381,8.6162 C51.6601,8.56238 51.9,8.53547 52.1576,8.53547 C52.5596,8.53547 52.9505,8.60917 53.3294,8.75654 C53.7083,8.90395 54.0429,9.13552 54.3332,9.45138 C54.623,9.7672 54.8558,10.1731 55.0315,10.6691 C55.2068,11.165 55.2946,11.7616 55.2946,12.4587 C55.2946,13.0716 55.2,13.6483 55.0103,14.1888 C54.8207,14.7292 54.5484,15.1994 54.1926,15.5994 C53.8373,15.9995 53.4045,16.3153 52.8942,16.5469 C52.3843,16.7785 51.811,16.8943 51.175,16.8943 C50.824,16.8943 50.487,16.8745 50.164,16.8347 C49.8414,16.7949 49.5535,16.7458 49.3008,16.6873 C49.0481,16.6288 48.8377,16.568 48.6692,16.5048 C48.5007,16.4417 48.3933,16.3867 48.3466,16.3399 M51.5048,9.60929 C51.3175,9.60929 51.1422,9.63149 50.9781,9.67597 C50.8144,9.72041 50.6659,9.7777 50.5325,9.84789 C50.3992,9.91809 50.2798,9.9953 50.1748,10.0795 C50.0694,10.1637 49.9816,10.2456 49.9117,10.3251 L49.9117,15.61 C49.9444,15.6895 50.0027,15.7585 50.087,15.817 C50.1712,15.8755 50.2742,15.9246 50.3956,15.9644 C50.5174,16.0042 50.6531,16.0346 50.8028,16.0556 C50.9526,16.0767 51.1115,16.0872 51.28,16.0872 C51.6122,16.0872 51.9176,16.017 52.1959,15.8767 C52.4746,15.7363 52.7153,15.5257 52.919,15.245 C53.1226,14.9643 53.2827,14.6134 53.3997,14.1923 C53.5167,13.7712 53.5797,13.2776 53.5893,12.7114 C53.5985,12.1874 53.5518,11.7312 53.4488,11.3428 C53.3458,10.9545 53.2008,10.6316 53.0136,10.3743 C52.8263,10.117 52.6043,9.92511 52.3468,9.79879 C52.0897,9.67246 51.809,9.60929 51.5048,9.60929 M56.508,12.8588 C56.508,12.2739 56.5994,11.7207 56.7819,11.1989 C56.9643,10.6773 57.2298,10.2187 57.5784,9.82334 C57.927,9.42799 58.3538,9.11448 58.8592,8.88287 C59.3643,8.65129 59.9353,8.53547 60.5717,8.53547 C60.8057,8.53547 61.03,8.55068 61.2453,8.5811 C61.4605,8.61149 61.6605,8.64894 61.8454,8.69338 C62.0302,8.73782 62.1951,8.78581 62.34,8.83727 C62.4854,8.88874 62.6048,8.93553 62.6982,8.97761 L62.6279,11.041 L61.6805,11.041 L61.3646,9.87596 C61.2429,9.7169 61.0899,9.59408 60.9051,9.50752 C60.7202,9.42096 60.4942,9.37768 60.2275,9.37768 C59.9608,9.37768 59.7061,9.43849 59.4625,9.56014 C59.2194,9.6818 59.003,9.86546 58.8133,10.1111 C58.6241,10.3567 58.472,10.6632 58.3574,11.0305 C58.2428,11.3978 58.1829,11.8271 58.1785,12.3184 C58.1737,12.95 58.2356,13.4881 58.3642,13.9326 C58.4931,14.3771 58.6648,14.7385 58.88,15.0169 C59.0956,15.2953 59.3455,15.4977 59.631,15.624 C59.9165,15.7503 60.2136,15.8135 60.5226,15.8135 C60.7426,15.8135 60.9494,15.7948 61.1434,15.7574 C61.3379,15.7199 61.5168,15.6708 61.6805,15.61 C61.8442,15.5491 61.9939,15.4801 62.1296,15.4029 C62.2654,15.3257 62.3848,15.2497 62.4878,15.1748 L62.7964,15.8486 C62.6702,15.9796 62.5133,16.1071 62.3261,16.2311 C62.1392,16.3551 61.9296,16.4662 61.698,16.5645 C61.4664,16.6627 61.2221,16.7423 60.9646,16.8031 C60.7074,16.8639 60.4451,16.8943 60.1784,16.8943 C59.5751,16.8943 59.0453,16.7902 58.5889,16.582 C58.1326,16.3738 57.7513,16.0895 57.445,15.7293 C57.1384,15.369 56.9068,14.942 56.7503,14.4484 C56.5934,13.9548 56.5128,13.4249 56.508,12.8588 M63.779,14.6274 C63.779,14.2905 63.8421,13.9899 63.9686,13.7255 C64.0948,13.4612 64.2681,13.2284 64.4877,13.0272 C64.7077,12.826 64.9664,12.6553 65.2635,12.5149 C65.5605,12.3745 65.8811,12.2599 66.2249,12.171 C66.5687,12.0821 66.9268,12.0166 67.2985,11.9745 C67.6706,11.9323 68.0392,11.9066 68.4041,11.8972 L68.4041,11.5253 C68.4041,11.1978 68.3805,10.9205 68.3338,10.6936 C68.2871,10.4667 68.2065,10.2819 68.0919,10.1392 C67.9773,9.99646 67.824,9.89353 67.6319,9.83037 C67.4403,9.7672 67.1971,9.73562 66.9021,9.73562 C66.6493,9.73562 66.397,9.75902 66.1442,9.80581 C65.8915,9.85257 65.6496,9.9099 65.4176,9.97774 C65.186,10.0456 64.9732,10.1181 64.7792,10.1953 C64.5851,10.2725 64.4222,10.3439 64.2913,10.4094 L64.2845,10.4094 L63.9686,9.73562 C64.0573,9.65138 64.2142,9.54377 64.4386,9.41278 C64.6634,9.28178 64.9289,9.15541 65.2351,9.03379 C65.5418,8.91214 65.8716,8.80685 66.2249,8.71793 C66.5782,8.62906 66.9304,8.58462 67.281,8.58462 C67.7725,8.58462 68.1877,8.63488 68.5271,8.7355 C68.866,8.83607 69.1411,8.9975 69.3515,9.21977 C69.562,9.442 69.7129,9.72975 69.8043,10.083 C69.8954,10.4363 69.9413,10.8679 69.9413,11.3779 L69.9413,15.9539 L70.8113,15.9539 L70.8113,16.6347 C70.7226,16.6581 70.616,16.6849 70.4919,16.7153 C70.3681,16.7458 70.2383,16.7738 70.1026,16.7996 C69.9668,16.8253 69.8287,16.8475 69.6885,16.8662 C69.548,16.885 69.4146,16.8943 69.2885,16.8943 C69.1575,16.8943 69.0441,16.8885 68.9479,16.8768 C68.8521,16.8651 68.7738,16.8347 68.7127,16.7855 C68.652,16.7364 68.6065,16.6627 68.5762,16.5645 C68.5454,16.4662 68.5303,16.3329 68.5303,16.1644 L68.5303,15.9047 C68.4696,15.9609 68.3702,16.0439 68.232,16.1539 C68.0943,16.2639 67.9246,16.3738 67.7234,16.4837 C67.5221,16.5937 67.2929,16.6896 67.0354,16.7715 C66.7783,16.8534 66.502,16.8943 66.2073,16.8943 C65.8843,16.8943 65.5769,16.8511 65.2846,16.7645 C64.992,16.6779 64.7348,16.5434 64.5125,16.3609 C64.2901,16.1785 64.1124,15.9433 63.979,15.6556 C63.8457,15.3678 63.779,15.0251 63.779,14.6274 M66.811,15.8205 C66.9092,15.8205 67.0262,15.8077 67.162,15.7819 C67.2973,15.7562 67.4379,15.7199 67.5828,15.6731 C67.7281,15.6264 67.8719,15.5679 68.0144,15.4977 C68.1573,15.4275 68.2871,15.3503 68.4041,15.2661 L68.4041,12.6833 C67.8427,12.6833 67.3736,12.7324 66.9971,12.8307 C66.6202,12.929 66.3195,13.0588 66.0951,13.2202 C65.8704,13.3816 65.7114,13.5653 65.6176,13.7712 C65.5242,13.977 65.4775,14.1923 65.4775,14.4169 C65.4775,14.6742 65.5114,14.8917 65.5793,15.0695 C65.6472,15.2474 65.7406,15.3924 65.86,15.5047 C65.9793,15.617 66.1207,15.6977 66.2844,15.7468 C66.4485,15.796 66.6238,15.8205 66.811,15.8205 M71.7236,16.7329 L71.7236,15.9609 L72.8819,15.8416 L72.8819,6.05099 L71.7236,5.92467 L71.7236,5.25789 L74.0821,4.94207 L74.096,4.94207 L74.447,5.1877 L74.447,15.8416 L75.6612,15.9609 L75.6612,16.7329 L71.7236,16.7329 Z" style="stroke:none;fill-rule:evenodd;fill:#333333;fill-opacity:1;"/>
        </g>
    </g>
</svg>
