<?xml version="1.0" encoding="UTF-8" standalone="no"?>
<svg width="192" xmlns="http://www.w3.org/2000/svg" xmlns:xlink="http://www.w3.org/1999/xlink" version="1.1" height="52">
 <desc iVinci="yes" snapToGrid="no" gridStep="20" showGrid="no" version="4.5" codePlatform="0"/>
 <g id="Layer1">
  <g id="Shape1">
   <desc shadowBlur="4" shadowOpacity="160" pers-end="0,0" text="לוח" shadowEnabled="0" basicInfo-starPoints="5" blurRadius="4" markerStart="0" strokeStyle="0" shapeID="1" font-underline="0" basicInfo-polygonSides="6" transform="translate(32.074 21.904)" basicInfo-roundedRectRadius="12" font-alignment="1" font-bold="0" type="0" pers-center="0,0" font-pixelSize="48" pers-size="0,0" pers-start="0,0" flag="" mesh="" bounding="rect(-29.0741,-19.9044,58.1482,39.8089)" blurEnabled="0" font-familyName="SBL Hebrew" locked="0" shadowOffsetX="0" shadowOffsetY="2" basicInfo-basicType="0" markerEnd="0"/>
   <path id="shapePath1" d="m50.297 35.844c1.64-0.797 2.961-1.66 3.961-2.59 1-0.929 1.777-1.871 2.332-2.824 0.554-0.953 0.925-1.887 1.113-2.801 0.187-0.914 0.281-1.761 0.281-2.543 0-1.218-0.269-2.062-0.808-2.531s-1.325-0.703-2.356-0.703h-8.414c-0.875 0-1.605-0.086-2.191-0.258s-1.055-0.422-1.406-0.75c-0.352-0.328-0.602-0.726-0.75-1.195-0.149-0.469-0.223-1-0.223-1.594 0-1.203 0.027-2.176 0.082-2.918s0.164-1.383 0.328-1.922 0.391-1.047 0.68-1.524c0.289-0.476 0.676-1.043 1.16-1.6988 0.078-0.0937 0.125-0.1679 0.14-0.2226 0.016-0.0547 0.024-0.0977 0.024-0.1289 0-0.1563-0.09-0.3086-0.27-0.4571-0.179-0.1484-0.441-0.3554-0.785-0.6211-0.593-0.4687-1.086-0.9062-1.476-1.3125-0.391-0.4062-0.586-0.8203-0.586-1.2422 0-0.2343 0.086-0.5078 0.258-0.8203 0.171-0.3125 0.394-0.6445 0.668-0.9961 0.273-0.3515 0.585-0.7148 0.937-1.0898s0.707-0.7422 1.066-1.1016c0.141 0 0.305 0.0313 0.492 0.0938 0.188 0.0625 0.344 0.1328 0.469 0.2109-0.062 0.2969-0.086 0.543-0.07 0.7383s0.082 0.3828 0.199 0.5625 0.297 0.3672 0.539 0.5625 0.567 0.4492 0.973 0.7617c0.656 0.5 1.117 0.8985 1.383 1.1953 0.265 0.2969 0.398 0.5938 0.398 0.8907 0 0.2343-0.07 0.4882-0.211 0.7617-0.14 0.2734-0.32 0.5508-0.539 0.832-0.219 0.2813-0.465 0.5703-0.738 0.8672-0.274 0.2969-0.543 0.5854-0.809 0.8674-0.265 0.281-0.476 0.551-0.633 0.808-0.156 0.258-0.281 0.532-0.375 0.821-0.093 0.289-0.156 0.609-0.187 0.961-0.031 0.351-0.047 0.754-0.047 1.207 0 0.5 0.031 0.91 0.094 1.231 0.062 0.32 0.191 0.574 0.387 0.761 0.195 0.188 0.476 0.317 0.843 0.387s0.848 0.105 1.442 0.105h8.039c0.968 0 1.797 0.149 2.484 0.446 0.688 0.297 1.25 0.699 1.688 1.207 0.437 0.508 0.757 1.094 0.961 1.758 0.203 0.664 0.304 1.371 0.304 2.121 0 1.453-0.238 3.043-0.715 4.769-0.476 1.727-1.183 3.465-2.121 5.215-0.937 1.75-2.09 3.449-3.457 5.098-1.367 1.648-2.941 3.129-4.722 4.441-0.36-0.047-0.68-0.133-0.961-0.258 0.14-0.89 0.308-1.82 0.504-2.789 0.195-0.968 0.402-1.898 0.621-2.789m-15.141 5.93c-0.031-0.313-0.062-0.754-0.094-1.324-0.031-0.571-0.062-1.18-0.093-1.828-0.031-0.649-0.055-1.301-0.071-1.957-0.015-0.657-0.023-1.219-0.023-1.688 0-1.609 0.023-2.988 0.07-4.137 0.047-1.148 0.102-2.152 0.164-3.011 0.063-0.86 0.118-1.618 0.164-2.274 0.047-0.656 0.071-1.297 0.071-1.922 0-0.234-0.055-0.426-0.164-0.574-0.11-0.148-0.258-0.273-0.446-0.375-0.187-0.102-0.402-0.184-0.644-0.246-0.242-0.063-0.488-0.133-0.738-0.211-0.61-0.172-1.161-0.332-1.653-0.48-0.492-0.149-0.918-0.321-1.277-0.516-0.36-0.195-0.637-0.426-0.832-0.692-0.196-0.265-0.293-0.593-0.293-0.984 0-0.219 0.051-0.535 0.152-0.949 0.102-0.414 0.235-0.859 0.399-1.336s0.347-0.949 0.55-1.418c0.204-0.469 0.399-0.867 0.586-1.195 0.125-0.078 0.293-0.121 0.504-0.129s0.403 0.004 0.574 0.035c0.094 0.375 0.223 0.684 0.387 0.926s0.387 0.449 0.668 0.621 0.625 0.32 1.031 0.445c0.407 0.125 0.907 0.266 1.5 0.422 0.532 0.141 0.969 0.273 1.313 0.398s0.609 0.254 0.797 0.387c0.187 0.133 0.316 0.277 0.386 0.434 0.071 0.156 0.106 0.328 0.106 0.515 0 0.125-0.023 0.332-0.07 0.621-0.047 0.29-0.094 0.598-0.141 0.926-0.078 0.531-0.16 1.176-0.246 1.934s-0.129 1.723-0.129 2.894c0 1.641 0.074 3.27 0.223 4.887 0.148 1.617 0.332 3.16 0.551 4.629 0.093 0.656 0.179 1.273 0.257 1.852 0.078 0.578 0.117 1.023 0.117 1.335 0 0.297-0.031 0.532-0.093 0.704-0.063 0.172-0.164 0.351-0.305 0.539-0.344 0.453-0.691 0.922-1.043 1.406-0.351 0.484-0.66 0.93-0.926 1.336-0.437 0.047-0.867 0.047-1.289 0m-29.789-27.117c0.2031 0.453 0.418 0.808 0.6445 1.066 0.2266 0.258 0.4883 0.453 0.7852 0.586s0.6406 0.219 1.0312 0.258c0.3907 0.039 0.8516 0.058 1.3828 0.058h11.039c0.984 0 1.809 0.071 2.473 0.211 0.664 0.141 1.195 0.348 1.593 0.621 0.399 0.274 0.68 0.618 0.844 1.032s0.246 0.894 0.246 1.441c0 0.531-0.082 1.113-0.246 1.746s-0.34 1.324-0.527 2.074c0 2.313 0.101 4.372 0.305 6.176 0.203 1.805 0.398 3.395 0.585 4.77 0.094 0.656 0.18 1.258 0.258 1.804 0.078 0.547 0.117 0.977 0.117 1.289 0 0.297-0.031 0.532-0.093 0.704-0.063 0.172-0.164 0.351-0.305 0.539-0.328 0.453-0.641 0.906-0.938 1.359-0.296 0.453-0.578 0.914-0.843 1.383-0.438 0.047-0.867 0.047-1.289 0-0.047-0.297-0.098-0.727-0.153-1.289-0.054-0.563-0.105-1.168-0.152-1.817-0.047-0.648-0.086-1.293-0.117-1.933-0.031-0.641-0.047-1.196-0.047-1.664 0-1.36 0.004-2.532 0.012-3.516 0.007-0.984 0.019-1.824 0.035-2.519 0.015-0.696 0.031-1.278 0.047-1.747 0.015-0.468 0.031-0.874 0.047-1.218 0.015-0.422 0.027-0.797 0.035-1.125 0.007-0.328 0.011-0.703 0.011-1.125 0-0.375-0.023-0.688-0.07-0.938s-0.152-0.453-0.316-0.609-0.41-0.266-0.739-0.328c-0.328-0.063-0.765-0.094-1.312-0.094h-11.109c-0.0786 1.219-0.1293 2.441-0.1528 3.668-0.0234 1.227-0.0351 2.449-0.0351 3.668 0 1.609 0.0156 3.211 0.0468 4.805 0.0313 1.593 0.0625 3.211 0.0938 4.851 0 0.141-0.0117 0.274-0.0352 0.399-0.0234 0.125-0.0898 0.226-0.1992 0.304-0.2344 0.188-0.4844 0.387-0.75 0.598s-0.5195 0.414-0.7617 0.609c-0.2422 0.196-0.4688 0.383-0.6797 0.563s-0.3867 0.332-0.5273 0.457c-0.3907 0.047-0.7735 0.047-1.1485 0 0.1563-3.359 0.3438-6.699 0.5625-10.02 0.2188-3.32 0.5938-6.629 1.125-9.925-0.4531-0.032-0.8711-0.082-1.2539-0.153-0.3828-0.07-0.7148-0.187-0.9961-0.351-0.2812-0.164-0.5-0.387-0.6562-0.668-0.1563-0.282-0.2344-0.649-0.2344-1.102 0-0.14 0.0313-0.367 0.0938-0.68 0.0625-0.312 0.1523-0.679 0.2695-1.101s0.2578-0.887 0.4219-1.395c0.164-0.507 0.3398-1.019 0.5273-1.535 0.1563-0.078 0.3281-0.133 0.5156-0.164s0.3672-0.039 0.5391-0.023z" fill-rule="evenodd" fill="#941003"/>
  </g>
  <g id="Shape2">
   <desc shadowBlur="4" shadowOpacity="160" pers-end="0,0" text="Hebcal" shadowEnabled="0" basicInfo-starPoints="5" blurRadius="4" markerStart="0" strokeStyle="0" shapeID="2" font-underline="0" basicInfo-polygonSides="6" transform="translate(130.63 26.841)" basicInfo-roundedRectRadius="12" font-alignment="1" font-bold="0" type="0" pers-center="0,0" font-pixelSize="36" pers-size="0,0" pers-start="0,0" flag="" mesh="" bounding="rect(-59.3633,-14.9678,118.727,29.9355)" blurEnabled="0" font-familyName="Merriweather" locked="0" shadowOffsetX="0" shadowOffsetY="2" basicInfo-basicType="0" markerEnd="0"/>
   <path id="shapePath2" d="m71.269 41.405v-1.934l2.936-0.492v-21.92l-2.813-0.475v-1.933h9.844v1.933l-3.006 0.475v9.457h12.393v-9.457l-2.848-0.475v-1.933h9.703v1.933l-2.812 0.475v21.937l2.812 0.475v1.934h-9.668v-1.934l2.813-0.475v-10.195h-12.393v10.195l3.006 0.475v1.934h-9.967m38.541 0.404c-1.49 0-2.79-0.258-3.91-0.774-1.12-0.515-2.05-1.236-2.8-2.162-0.75-0.925-1.32-2.03-1.69-3.313s-0.56-2.692-0.56-4.228c0-1.558 0.23-2.979 0.7-4.262 0.47-1.284 1.12-2.385 1.96-3.305s1.83-1.632 2.98-2.136 2.4-0.756 3.76-0.756c2.22 0 3.93 0.601 5.15 1.802s1.88 2.98 1.99 5.335c0.01 0.762 0 1.427-0.02 1.995-0.02 0.569-0.08 1.069-0.17 1.503h-12.17v0.106c0.05 1.336 0.24 2.478 0.58 3.427s0.78 1.726 1.33 2.329c0.54 0.604 1.17 1.043 1.87 1.319 0.7 0.275 1.44 0.413 2.2 0.413 0.5 0 1.01-0.047 1.53-0.141 0.51-0.093 1.01-0.217 1.48-0.369 0.48-0.152 0.91-0.328 1.3-0.527 0.4-0.199 0.72-0.399 0.98-0.598l0.74 1.723c-0.34 0.34-0.77 0.668-1.3 0.984-0.52 0.316-1.1 0.595-1.74 0.835-0.63 0.24-1.31 0.434-2.03 0.58-0.71 0.147-1.43 0.22-2.16 0.22m-0.44-18.826c-0.58 0-1.13 0.102-1.63 0.307-0.51 0.205-0.95 0.554-1.33 1.046s-0.69 1.149-0.93 1.969-0.39 1.851-0.45 3.094h8.16c0.02-0.235 0.03-0.481 0.04-0.739 0.01-0.257 0.01-0.498 0.01-0.72 0-0.656-0.07-1.284-0.21-1.881-0.14-0.598-0.36-1.125-0.67-1.582-0.3-0.457-0.7-0.821-1.19-1.09-0.48-0.269-1.08-0.404-1.8-0.404m12.21 17.437v-25.769l-2.88-0.317v-1.67l5.85-0.791h0.07l0.88 0.598v10.775c0.31-0.293 0.65-0.583 1.03-0.87s0.81-0.542 1.27-0.764c0.46-0.223 0.97-0.402 1.53-0.536 0.55-0.135 1.15-0.203 1.8-0.203 1.01 0 1.99 0.185 2.93 0.554 0.95 0.369 1.79 0.949 2.52 1.74 0.72 0.791 1.31 1.808 1.75 3.05s0.66 2.736 0.66 4.483c0 1.535-0.24 2.979-0.72 4.332-0.47 1.354-1.15 2.532-2.04 3.534s-1.98 1.793-3.26 2.373c-1.27 0.58-2.71 0.87-4.3 0.87-0.88 0-1.73-0.05-2.53-0.15-0.81-0.099-1.53-0.222-2.17-0.369-0.63-0.146-1.16-0.298-1.58-0.457-0.42-0.158-0.69-0.296-0.81-0.413m7.91-16.857c-0.47 0-0.9 0.055-1.31 0.167-0.42 0.111-0.79 0.255-1.12 0.43-0.34 0.176-0.63 0.37-0.9 0.58-0.26 0.211-0.48 0.416-0.66 0.616v13.236c0.09 0.199 0.23 0.372 0.44 0.519 0.21 0.146 0.47 0.269 0.78 0.369 0.3 0.099 0.64 0.176 1.02 0.228 0.37 0.053 0.77 0.079 1.19 0.079 0.83 0 1.6-0.175 2.29-0.527 0.7-0.352 1.31-0.879 1.82-1.582s0.91-1.582 1.2-2.637c0.29-1.054 0.45-2.291 0.48-3.709 0.02-1.312-0.1-2.455-0.36-3.427-0.26-0.973-0.62-1.782-1.09-2.426-0.47-0.645-1.02-1.125-1.67-1.442-0.64-0.316-1.34-0.474-2.11-0.474m12.53 8.138c0-1.464 0.23-2.85 0.69-4.157 0.46-1.306 1.12-2.455 2-3.445 0.87-0.99 1.94-1.775 3.2-2.356 1.27-0.58 2.7-0.87 4.29-0.87 0.59 0 1.15 0.038 1.69 0.115 0.54 0.076 1.04 0.17 1.5 0.281 0.47 0.111 0.88 0.231 1.24 0.36 0.37 0.129 0.67 0.246 0.9 0.352l-0.18 5.168h-2.37l-0.79-2.918c-0.31-0.399-0.69-0.706-1.15-0.923s-1.03-0.325-1.7-0.325-1.3 0.152-1.92 0.457c-0.6 0.304-1.15 0.764-1.62 1.38-0.48 0.615-0.86 1.382-1.14 2.302-0.29 0.92-0.44 1.996-0.45 3.226-0.01 1.582 0.14 2.93 0.46 4.043 0.33 1.113 0.76 2.018 1.3 2.716 0.54 0.697 1.16 1.204 1.88 1.52 0.71 0.317 1.46 0.475 2.23 0.475 0.55 0 1.07-0.047 1.56-0.141 0.48-0.093 0.93-0.217 1.34-0.369s0.78-0.325 1.12-0.518c0.34-0.194 0.64-0.384 0.9-0.572l0.78 1.688c-0.32 0.328-0.71 0.647-1.18 0.958-0.47 0.31-1 0.589-1.58 0.835s-1.19 0.445-1.83 0.597c-0.65 0.153-1.3 0.229-1.97 0.229-1.51 0-2.84-0.261-3.98-0.782-1.15-0.522-2.1-1.234-2.87-2.136-0.77-0.903-1.35-1.972-1.74-3.208s-0.59-2.564-0.61-3.982m18.22 4.43c0-0.844 0.15-1.597 0.47-2.259s0.75-1.245 1.3-1.749 1.2-0.931 1.94-1.283c0.75-0.352 1.55-0.639 2.41-0.861 0.86-0.223 1.76-0.387 2.69-0.492 0.93-0.106 1.86-0.17 2.77-0.194v-0.931c0-0.821-0.06-1.515-0.18-2.083-0.11-0.569-0.32-1.032-0.6-1.389-0.29-0.358-0.67-0.615-1.15-0.774-0.48-0.158-1.09-0.237-1.83-0.237-0.64 0-1.27 0.059-1.9 0.176s-1.24 0.261-1.82 0.431-1.11 0.351-1.6 0.544c-0.48 0.194-0.89 0.373-1.22 0.537h-0.02l-0.79-1.688c0.22-0.211 0.62-0.48 1.18-0.808 0.56-0.329 1.23-0.645 1.99-0.95 0.77-0.304 1.6-0.568 2.48-0.791 0.89-0.222 1.77-0.334 2.65-0.334 1.23 0 2.27 0.126 3.12 0.378s1.54 0.656 2.06 1.213c0.53 0.557 0.91 1.277 1.14 2.162s0.34 1.966 0.34 3.243v11.461h2.18v1.705c-0.22 0.059-0.49 0.126-0.8 0.203-0.31 0.076-0.64 0.146-0.98 0.211-0.34 0.064-0.68 0.12-1.03 0.166-0.36 0.047-0.69 0.071-1 0.071-0.33 0-0.62-0.015-0.86-0.044s-0.43-0.106-0.59-0.229c-0.15-0.123-0.26-0.307-0.34-0.553s-0.11-0.58-0.11-1.002v-0.651c-0.16 0.141-0.4 0.349-0.75 0.624-0.35 0.276-0.77 0.551-1.27 0.826-0.51 0.276-1.08 0.516-1.73 0.721-0.64 0.205-1.33 0.308-2.07 0.308-0.81 0-1.58-0.109-2.31-0.325-0.74-0.217-1.38-0.554-1.94-1.011-0.55-0.457-1-1.046-1.33-1.767-0.34-0.72-0.5-1.579-0.5-2.575m7.59 2.988c0.25 0 0.54-0.032 0.88-0.096 0.34-0.065 0.69-0.155 1.05-0.273 0.37-0.117 0.73-0.263 1.08-0.439 0.36-0.176 0.69-0.369 0.98-0.58v-6.469c-1.41 0-2.58 0.123-3.52 0.369-0.95 0.246-1.7 0.571-2.26 0.976-0.57 0.404-0.96 0.864-1.2 1.38-0.23 0.515-0.35 1.054-0.35 1.617 0 0.644 0.09 1.189 0.25 1.634 0.18 0.446 0.41 0.809 0.71 1.09 0.3 0.282 0.65 0.484 1.06 0.607s0.85 0.184 1.32 0.184m12.3 2.286v-1.934l2.91-0.299v-24.521l-2.91-0.317v-1.67l5.91-0.791h0.04l0.88 0.615v26.684l3.04 0.299v1.934h-9.87z" fill="#333"/>
  </g>
 </g>
</svg>
