<?xml version="1.0"?>
<svg version="1.1" xmlns="http://www.w3.org/2000/svg" xmlns:xlink="http://www.w3.org/1999/xlink" width="512" height="512">
    <desc iVinci="yes" version="4.6" gridStep="20" showGrid="no" snapToGrid="no" codePlatform="0"/>
    <g id="Layer1" name="Layer 1" opacity="1">
        <g id="Shape1">
            <desc shapeID="1" type="0" basicInfo-basicType="0" basicInfo-roundedRectRadius="12" basicInfo-polygonSides="6" basicInfo-starPoints="5" bounding="rect(-29.0741,-19.9044,58.1482,39.8088)" text="לוח" font-familyName="SBL Hebrew" font-pixelSize="48" font-bold="0" font-underline="0" font-alignment="1" strokeStyle="0" markerStart="0" markerEnd="0" shadowEnabled="0" shadowOffsetX="0" shadowOffsetY="2" shadowBlur="4" shadowOpacity="160" blurEnabled="0" blurRadius="4" transform="matrix(6.75035,0,0,6.75036,249.764,150.888)" pers-center="0,0" pers-size="0,0" pers-start="0,0" pers-end="0,0" locked="0" mesh="" flag=""/>
            <path id="shapePath1" d="M372.776,244.983 C383.847,239.603 392.764,233.778 399.514,227.5 C406.265,221.229 411.51,214.87 415.256,208.437 C418.996,202.004 421.5,195.699 422.769,189.529 C424.032,183.359 424.666,177.642 424.666,172.363 C424.666,164.141 422.85,158.444 419.212,155.278 C415.573,152.112 410.268,150.532 403.308,150.532 L346.511,150.532 C340.604,150.532 335.676,149.952 331.721,148.791 C327.763,147.63 324.599,145.942 322.226,143.728 C319.852,141.514 318.165,138.827 317.163,135.661 C316.161,132.495 315.66,128.911 315.66,124.901 C315.66,116.78 315.845,110.212 316.214,105.203 C316.583,100.195 317.321,95.8698 318.429,92.2313 C319.536,88.5922 321.065,85.1644 323.017,81.9471 C324.968,78.7306 327.579,74.9072 330.85,70.477 C331.376,69.8444 331.694,69.3436 331.795,68.9743 C331.903,68.6051 331.957,68.3148 331.957,68.1042 C331.957,67.0491 331.349,66.021 330.134,65.0187 C328.926,64.0169 327.157,62.6196 324.836,60.8259 C320.828,57.6621 317.506,54.7088 314.869,51.9661 C312.232,49.2242 310.913,46.4288 310.913,43.5808 C310.913,41.9992 311.494,40.153 312.654,38.0435 C313.814,35.934 315.317,33.6929 317.163,31.3195 C319.008,28.9467 321.118,26.4943 323.491,23.9629 C325.865,21.4315 328.264,18.9528 330.688,16.5267 C331.64,16.5267 332.747,16.7381 334.009,17.16 C335.278,17.5819 336.331,18.0563 337.175,18.5836 C336.756,20.5877 336.594,22.2491 336.702,23.5673 C336.81,24.8857 337.256,26.1514 338.046,27.3644 C338.836,28.5775 340.051,29.8432 341.684,31.1615 C343.318,32.4799 345.512,34.1938 348.252,36.3033 C352.681,39.6785 355.792,42.3685 357.588,44.3719 C359.377,46.3761 360.275,48.3804 360.275,50.3846 C360.275,51.9661 359.802,53.68 358.85,55.5262 C357.905,57.3719 356.69,59.2444 355.212,61.1425 C353.734,63.0415 352.073,64.9923 350.23,66.9965 C348.381,69.0006 346.565,70.9515 344.769,72.8504 C342.98,74.7486 341.556,76.5685 340.496,78.3087 C339.443,80.049 338.599,81.8945 337.965,83.846 C337.337,85.7976 336.912,87.9597 336.702,90.3325 C336.493,92.7059 336.385,95.4215 336.385,98.4801 C336.385,101.855 336.594,104.623 337.02,106.79 C337.438,108.95 338.309,110.665 339.632,111.927 C340.948,113.196 342.845,114.067 345.323,114.539 C347.8,115.012 351.047,115.248 355.057,115.248 L409.323,115.248 C415.857,115.248 421.453,116.254 426.091,118.259 C430.735,120.264 434.529,122.977 437.485,126.406 C440.435,129.836 442.595,133.791 443.972,138.274 C445.343,142.756 446.024,147.528 446.024,152.591 C446.024,162.399 444.418,173.132 441.198,184.783 C437.985,196.441 433.212,208.173 426.88,219.987 C420.555,231.8 412.772,243.269 403.544,254.4 C394.317,265.525 383.692,275.522 371.669,284.378 C369.239,284.061 367.079,283.481 365.182,282.637 C366.127,276.629 367.261,270.351 368.584,263.81 C369.901,257.276 371.298,250.998 372.776,244.983 M270.57,285.013 C270.359,282.9 270.148,279.923 269.937,276.075 C269.726,272.221 269.515,268.11 269.304,263.736 C269.093,259.355 268.935,254.953 268.829,250.525 C268.724,246.09 268.671,242.297 268.671,239.131 C268.671,228.269 268.829,218.961 269.146,211.204 C269.462,203.455 269.831,196.678 270.253,190.879 C270.675,185.074 271.045,179.957 271.36,175.529 C271.677,171.101 271.836,166.774 271.836,162.555 C271.836,160.975 271.466,159.679 270.728,158.68 C269.989,157.681 268.988,156.837 267.722,156.148 C266.456,155.46 265.006,154.906 263.371,154.488 C261.736,154.063 260.075,153.59 258.388,153.064 C254.274,151.902 250.556,150.822 247.233,149.823 C243.911,148.818 241.037,147.657 238.611,146.34 C236.185,145.024 234.313,143.465 232.994,141.669 C231.676,139.88 231.017,137.666 231.017,135.027 C231.017,133.548 231.36,131.415 232.045,128.62 C232.731,125.826 233.627,122.822 234.735,119.602 C235.842,116.382 237.081,113.196 238.452,110.03 C239.824,106.864 241.143,104.177 242.408,101.963 C243.252,101.437 244.385,101.147 245.81,101.093 C247.233,101.039 248.525,101.12 249.686,101.329 C250.319,103.86 251.189,105.946 252.296,107.58 C253.404,109.213 254.906,110.611 256.805,111.772 C258.704,112.933 261.024,113.932 263.766,114.775 C266.509,115.619 269.884,116.571 273.892,117.624 C277.478,118.576 280.432,119.467 282.752,120.311 C285.072,121.155 286.865,122.025 288.131,122.923 C289.397,123.821 290.267,124.793 290.741,125.853 C291.216,126.906 291.454,128.067 291.454,129.329 C291.454,130.173 291.296,131.57 290.979,133.521 C290.662,135.479 290.346,137.558 290.03,139.772 C289.502,143.357 288.948,147.711 288.369,152.827 C287.788,157.944 287.499,164.458 287.499,172.363 C287.499,183.44 287.999,194.437 289.001,205.352 C290.004,216.267 291.243,226.683 292.719,236.599 C293.352,241.027 293.932,245.192 294.459,249.101 C294.987,253.003 295.251,256.007 295.251,258.113 C295.251,260.118 295.04,261.704 294.618,262.865 C294.196,264.026 293.51,265.234 292.561,266.503 C290.24,269.561 287.894,272.727 285.521,275.994 C283.147,279.262 281.064,282.272 279.271,285.013 C276.318,285.33 273.417,285.33 270.57,285.013 M69.4831,101.963 C70.8541,105.021 72.3048,107.418 73.8337,109.159 C75.3633,110.901 77.1299,112.217 79.1341,113.115 C81.1383,114.013 83.4584,114.593 86.095,114.857 C88.7324,115.12 91.8437,115.248 95.4294,115.248 L169.947,115.248 C176.592,115.248 182.156,115.727 186.639,116.672 C191.121,117.624 194.708,119.021 197.397,120.864 C200.086,122.714 201.985,125.036 203.093,127.831 C204.2,130.625 204.754,133.866 204.754,137.558 C204.754,141.142 204.2,145.071 203.093,149.344 C201.985,153.617 200.798,158.282 199.533,163.344 C199.533,178.958 200.219,192.857 201.59,205.035 C202.961,217.219 204.279,227.952 205.545,237.234 C206.178,241.662 206.758,245.726 207.285,249.411 C207.813,253.104 208.076,256.007 208.076,258.113 C208.076,260.118 207.865,261.704 207.443,262.865 C207.022,264.026 206.336,265.234 205.387,266.503 C203.172,269.561 201.062,272.619 199.058,275.677 C197.054,278.735 195.156,281.847 193.363,285.013 C190.41,285.33 187.509,285.33 184.661,285.013 C184.344,283.008 184.001,280.105 183.632,276.312 C183.264,272.511 182.921,268.427 182.604,264.046 C182.288,259.672 182.024,255.318 181.813,250.998 C181.602,246.671 181.496,242.924 181.496,239.765 C181.496,230.585 181.523,222.673 181.576,216.031 C181.629,209.389 181.708,203.718 181.813,199.027 C181.918,194.328 182.024,190.4 182.13,187.234 C182.235,184.075 182.34,181.334 182.446,179.012 C182.552,176.163 182.63,173.632 182.683,171.418 C182.736,169.204 182.762,166.672 182.762,163.824 C182.762,161.292 182.604,159.179 182.288,157.492 C181.972,155.804 181.259,154.434 180.152,153.381 C179.045,152.328 177.383,151.585 175.168,151.167 C172.953,150.741 170,150.532 166.308,150.532 L91.3164,150.532 C90.7886,158.761 90.4463,167.01 90.2877,175.292 C90.1297,183.575 90.0508,191.824 90.0508,200.053 C90.0508,210.914 90.1561,221.728 90.3667,232.488 C90.578,243.242 90.7886,254.164 90.9999,265.234 C90.9999,266.186 90.9209,267.084 90.7622,267.928 C90.6043,268.771 90.1561,269.453 89.4176,269.98 C87.8353,271.249 86.1477,272.592 84.3548,274.017 C82.5619,275.441 80.848,276.811 79.2131,278.127 C77.5781,279.451 76.0485,280.713 74.6249,281.928 C73.2012,283.143 72.0145,284.169 71.0654,285.013 C68.4281,285.33 65.844,285.33 63.3126,285.013 C64.3677,262.338 65.6334,239.792 67.1097,217.374 C68.5867,194.963 71.1181,172.626 74.7038,150.377 C71.6453,150.161 68.8236,149.823 66.2396,149.344 C63.6555,148.872 61.4144,148.082 59.5156,146.975 C57.6174,145.868 56.1404,144.362 55.086,142.465 C54.0309,140.562 53.5037,138.085 53.5037,135.027 C53.5037,134.082 53.715,132.549 54.1369,130.436 C54.5588,128.33 55.165,125.853 55.9561,123.004 C56.7473,120.156 57.6963,117.017 58.8041,113.587 C59.9111,110.165 61.0979,106.709 62.3635,103.226 C63.4186,102.699 64.5783,102.328 65.844,102.119 C67.1097,101.909 68.3227,101.855 69.4831,101.963 Z" style="stroke:none;fill-rule:evenodd;fill:#941003;fill-opacity:1;"/>
        </g>
        <g id="Shape2">
            <desc shapeID="2" type="0" basicInfo-basicType="0" basicInfo-roundedRectRadius="12" basicInfo-polygonSides="6" basicInfo-starPoints="5" bounding="rect(-59.3632,-14.9678,118.727,29.9356)" text="Hebcal" font-familyName="Merriweather" font-pixelSize="36" font-bold="0" font-underline="0" font-alignment="1" strokeStyle="0" markerStart="0" markerEnd="0" shadowEnabled="0" shadowOffsetX="0" shadowOffsetY="2" shadowBlur="4" shadowOpacity="160" blurEnabled="0" blurRadius="4" transform="matrix(3.54226,0,0,3.54227,256.208,360.697)" pers-center="0,0" pers-size="0,0" pers-start="0,0" pers-end="0,0" locked="0" mesh="" flag=""/>
            <path id="shapePath2" d="M45.9283,412.284 L45.9283,405.435 L56.3265,403.692 L56.3265,326.046 L46.3639,324.364 L46.3639,317.515 L81.2332,317.515 L81.2332,324.364 L70.5855,326.046 L70.5855,359.545 L114.483,359.545 L114.483,326.046 L104.396,324.364 L104.396,317.515 L138.767,317.515 L138.767,324.364 L128.805,326.046 L128.805,403.754 L138.767,405.435 L138.767,412.284 L104.521,412.284 L104.521,405.435 L114.483,403.754 L114.483,367.639 L70.5855,367.639 L70.5855,403.754 L81.2332,405.435 L81.2332,412.284 L45.9283,412.284 M182.457,413.717 C177.186,413.717 172.567,412.803 168.603,410.977 C164.639,409.15 161.327,406.597 158.67,403.318 C156.014,400.039 154.023,396.126 152.695,391.581 C151.366,387.035 150.7,382.044 150.7,376.606 C150.7,371.085 151.533,366.052 153.191,361.506 C154.852,356.961 157.169,353.058 160.133,349.8 C163.102,346.541 166.619,344.02 170.689,342.235 C174.756,340.45 179.198,339.557 184.015,339.557 C191.858,339.557 197.94,341.685 202.258,345.94 C206.576,350.194 208.921,356.494 209.293,364.837 C209.335,367.536 209.314,369.891 209.233,371.904 C209.148,373.918 208.942,375.693 208.609,377.228 L165.521,377.228 L165.521,377.602 C165.688,382.334 166.371,386.382 167.576,389.744 C168.78,393.106 170.346,395.857 172.276,397.994 C174.207,400.132 176.417,401.689 178.907,402.664 C181.398,403.64 183.994,404.127 186.69,404.127 C188.475,404.127 190.282,403.962 192.109,403.629 C193.934,403.297 195.691,402.861 197.37,402.322 C199.052,401.782 200.586,401.159 201.978,400.454 C203.367,399.748 204.521,399.042 205.432,398.337 L208.05,404.439 C206.845,405.643 205.318,406.805 203.473,407.926 C201.624,409.047 199.569,410.032 197.309,410.884 C195.046,411.734 192.648,412.419 190.115,412.938 C187.582,413.457 185.032,413.717 182.457,413.717 M180.902,347.029 C178.826,347.029 176.895,347.392 175.11,348.119 C173.325,348.845 171.759,350.08 170.41,351.824 C169.06,353.567 167.958,355.892 167.108,358.798 C166.258,361.703 165.73,365.356 165.521,369.756 L194.412,369.756 C194.497,368.926 194.546,368.054 194.568,367.141 C194.589,366.228 194.6,365.377 194.6,364.588 C194.6,362.264 194.352,360.043 193.852,357.926 C193.353,355.809 192.566,353.941 191.486,352.322 C190.406,350.703 189.006,349.416 187.281,348.461 C185.56,347.507 183.434,347.029 180.902,347.029 M224.156,408.797 L224.156,317.515 L213.944,316.394 L213.944,310.479 L234.677,307.677 L234.928,307.677 L238.042,309.794 L238.042,347.963 C239.119,346.925 240.334,345.898 241.683,344.881 C243.033,343.864 244.528,342.961 246.168,342.172 C247.804,341.384 249.611,340.75 251.584,340.273 C253.553,339.796 255.682,339.557 257.967,339.557 C261.534,339.557 265.002,340.211 268.364,341.518 C271.725,342.826 274.694,344.881 277.269,347.683 C279.84,350.485 281.906,354.086 283.464,358.486 C285.019,362.886 285.798,368.179 285.798,374.364 C285.798,379.802 284.959,384.918 283.276,389.713 C281.594,394.507 279.178,398.679 276.022,402.228 C272.869,405.777 269.029,408.58 264.502,410.634 C259.979,412.689 254.892,413.717 249.25,413.717 C246.136,413.717 243.146,413.54 240.281,413.187 C237.418,412.834 234.864,412.399 232.622,411.88 C230.38,411.361 228.513,410.821 227.018,410.261 C225.523,409.7 224.571,409.213 224.156,408.797 M252.175,349.084 C250.514,349.084 248.959,349.281 247.503,349.676 C246.051,350.07 244.733,350.578 243.55,351.201 C242.367,351.824 241.308,352.509 240.376,353.256 C239.441,354.003 238.662,354.729 238.042,355.435 L238.042,402.322 C238.332,403.027 238.849,403.64 239.597,404.159 C240.344,404.677 241.258,405.113 242.335,405.466 C243.415,405.819 244.62,406.089 245.948,406.276 C247.276,406.462 248.686,406.556 250.181,406.556 C253.128,406.556 255.838,405.933 258.307,404.688 C260.78,403.443 262.916,401.574 264.722,399.084 C266.529,396.593 267.949,393.48 268.987,389.744 C270.025,386.008 270.585,381.629 270.67,376.606 C270.751,371.956 270.337,367.909 269.423,364.464 C268.509,361.018 267.223,358.154 265.562,355.871 C263.9,353.588 261.931,351.886 259.646,350.765 C257.365,349.644 254.875,349.084 252.175,349.084 M296.563,377.913 C296.563,372.724 297.375,367.816 298.993,363.187 C300.612,358.559 302.968,354.491 306.06,350.983 C309.153,347.475 312.939,344.694 317.424,342.639 C321.905,340.585 326.97,339.557 332.617,339.557 C334.692,339.557 336.683,339.692 338.592,339.962 C340.502,340.232 342.276,340.564 343.916,340.958 C345.556,341.352 347.019,341.778 348.305,342.235 C349.595,342.691 350.654,343.106 351.483,343.48 L350.859,361.786 L342.453,361.786 L339.651,351.45 C338.571,350.039 337.214,348.949 335.574,348.181 C333.934,347.413 331.929,347.029 329.563,347.029 C327.197,347.029 324.937,347.569 322.776,348.648 C320.619,349.727 318.699,351.357 317.016,353.536 C315.337,355.715 313.988,358.434 312.971,361.693 C311.955,364.952 311.423,368.76 311.384,373.119 C311.342,378.723 311.891,383.496 313.031,387.44 C314.176,391.384 315.699,394.59 317.608,397.06 C319.521,399.53 321.738,401.325 324.271,402.446 C326.804,403.567 329.439,404.127 332.181,404.127 C334.133,404.127 335.968,403.962 337.689,403.629 C339.414,403.297 341.001,402.861 342.453,402.322 C343.906,401.782 345.234,401.17 346.438,400.485 C347.643,399.8 348.702,399.125 349.616,398.461 L352.354,404.439 C351.235,405.601 349.842,406.732 348.181,407.832 C346.523,408.932 344.664,409.918 342.609,410.79 C340.555,411.662 338.387,412.367 336.102,412.907 C333.821,413.447 331.494,413.717 329.127,413.717 C323.775,413.717 319.074,412.793 315.026,410.945 C310.977,409.098 307.594,406.576 304.877,403.38 C302.157,400.184 300.102,396.396 298.714,392.017 C297.321,387.637 296.606,382.936 296.563,377.913 M361.071,393.604 C361.071,390.616 361.631,387.948 362.754,385.603 C363.873,383.258 365.411,381.193 367.359,379.408 C369.311,377.623 371.606,376.108 374.242,374.862 C376.877,373.617 379.721,372.6 382.771,371.811 C385.821,371.022 388.999,370.441 392.296,370.068 C395.598,369.694 398.867,369.466 402.105,369.383 L402.105,366.083 C402.105,363.177 401.896,360.717 401.482,358.704 C401.067,356.691 400.352,355.051 399.335,353.785 C398.318,352.519 396.958,351.606 395.254,351.045 C393.554,350.485 391.397,350.205 388.779,350.205 C386.537,350.205 384.298,350.412 382.056,350.828 C379.814,351.242 377.667,351.751 375.609,352.353 C373.554,352.955 371.666,353.598 369.945,354.283 C368.223,354.968 366.778,355.601 365.616,356.182 L365.556,356.182 L362.754,350.205 C363.54,349.457 364.933,348.503 366.923,347.341 C368.918,346.178 371.273,345.057 373.99,343.978 C376.711,342.899 379.636,341.965 382.771,341.176 C385.906,340.387 389.031,339.993 392.141,339.993 C396.501,339.993 400.185,340.439 403.196,341.332 C406.203,342.224 408.644,343.656 410.511,345.628 C412.378,347.6 413.717,350.153 414.528,353.287 C415.335,356.421 415.743,360.25 415.743,364.775 L415.743,405.373 L423.461,405.373 L423.461,411.413 C422.675,411.62 421.729,411.859 420.627,412.129 C419.529,412.399 418.378,412.648 417.174,412.876 C415.969,413.104 414.744,413.301 413.5,413.467 C412.254,413.633 411.07,413.717 409.951,413.717 C408.789,413.717 407.783,413.665 406.93,413.561 C406.079,413.457 405.385,413.187 404.843,412.751 C404.305,412.316 403.901,411.662 403.632,410.79 C403.359,409.918 403.224,408.735 403.224,407.241 L403.224,404.937 C402.686,405.435 401.804,406.172 400.578,407.147 C399.356,408.123 397.851,409.098 396.065,410.074 C394.28,411.049 392.247,411.901 389.962,412.627 C387.681,413.353 385.23,413.717 382.615,413.717 C379.75,413.717 377.022,413.333 374.429,412.565 C371.833,411.797 369.552,410.603 367.579,408.984 C365.606,407.365 364.029,405.279 362.846,402.726 C361.663,400.173 361.071,397.133 361.071,393.604 M387.971,404.19 C388.843,404.19 389.881,404.076 391.085,403.847 C392.286,403.619 393.533,403.297 394.819,402.882 C396.108,402.467 397.383,401.948 398.648,401.325 C399.916,400.703 401.067,400.018 402.105,399.271 L402.105,376.357 C397.125,376.357 392.962,376.792 389.622,377.664 C386.278,378.536 383.611,379.688 381.62,381.12 C379.626,382.552 378.216,384.182 377.384,386.008 C376.555,387.834 376.14,389.744 376.14,391.737 C376.14,394.019 376.441,395.95 377.043,397.527 C377.646,399.105 378.475,400.391 379.534,401.388 C380.593,402.384 381.847,403.1 383.299,403.536 C384.755,403.972 386.31,404.19 387.971,404.19 M431.555,412.284 L431.555,405.435 L441.831,404.376 L441.831,317.515 L431.555,316.394 L431.555,310.479 L452.479,307.677 L452.603,307.677 L455.717,309.856 L455.717,404.376 L466.489,405.435 L466.489,412.284 L431.555,412.284 Z" style="stroke:none;fill-rule:evenodd;fill:#333333;fill-opacity:1;"/>
        </g>
        <g id="Shape3">
            <desc shapeID="3" type="2" basicInfo-basicType="0" basicInfo-roundedRectRadius="12" basicInfo-polygonSides="6" basicInfo-starPoints="5" bounding="rect(-206.493,-31.2518,412.985,62.5036)" text="Jewish Calendar" font-familyName="Merriweather" font-pixelSize="36" font-bold="0" font-underline="0" font-alignment="1" strokeStyle="0" markerStart="0" markerEnd="0" shadowEnabled="0" shadowOffsetX="0" shadowOffsetY="2" shadowBlur="4" shadowOpacity="160" blurEnabled="0" blurRadius="4" transform="matrix(1,0,0,1,259.996,458.747)" pers-center="0,0" pers-size="0,0" pers-start="0,0" pers-end="0,0" locked="0" mesh="" flag=""/>
            <path id="shapePath3" d="M116.377,477.321 L115.41,475.686 C116.371,475.347 117.25,474.772 118.047,473.964 C118.844,473.155 119.43,472.112 119.805,470.835 C119.946,470.343 120.063,469.851 120.157,469.358 C120.25,468.866 120.324,468.295 120.376,467.644 C120.429,466.994 120.467,466.229 120.491,465.351 C120.514,464.472 120.526,463.405 120.526,462.151 L120.526,446.542 L117.326,446.067 L117.326,444.134 L127.662,444.134 L127.662,446.067 L124.569,446.542 L124.569,460.974 C124.569,461.864 124.569,462.728 124.569,463.566 C124.569,464.404 124.557,465.207 124.534,465.975 C124.51,466.742 124.469,467.466 124.41,468.145 C124.352,468.825 124.264,469.446 124.147,470.009 C123.924,471.063 123.54,472.007 122.995,472.839 C122.451,473.671 121.818,474.392 121.097,475.001 C120.376,475.61 119.606,476.105 118.785,476.486 C117.965,476.867 117.162,477.145 116.377,477.321 M139.549,471.292 C138.061,471.292 136.757,471.034 135.638,470.518 C134.519,470.003 133.584,469.282 132.834,468.356 C132.084,467.431 131.522,466.326 131.147,465.043 C130.772,463.76 130.584,462.351 130.584,460.815 C130.584,459.257 130.819,457.836 131.287,456.553 C131.756,455.269 132.409,454.168 133.247,453.248 C134.085,452.328 135.078,451.616 136.227,451.112 C137.375,450.608 138.629,450.356 139.989,450.356 C142.203,450.356 143.92,450.957 145.139,452.158 C146.358,453.359 147.02,455.138 147.125,457.493 C147.137,458.255 147.131,458.92 147.108,459.488 C147.084,460.057 147.026,460.558 146.932,460.991 L134.768,460.991 L134.768,461.097 C134.815,462.433 135.008,463.575 135.348,464.524 C135.688,465.474 136.13,466.25 136.675,466.853 C137.22,467.457 137.844,467.896 138.547,468.172 C139.25,468.447 139.983,468.585 140.744,468.585 C141.248,468.585 141.758,468.538 142.274,468.444 C142.789,468.351 143.284,468.227 143.759,468.075 C144.234,467.923 144.667,467.747 145.06,467.548 C145.452,467.349 145.778,467.149 146.035,466.95 L146.774,468.673 C146.434,469.013 146.003,469.341 145.482,469.657 C144.96,469.974 144.38,470.252 143.742,470.492 C143.103,470.732 142.426,470.926 141.711,471.072 C140.996,471.219 140.276,471.292 139.549,471.292 M139.11,452.466 C138.524,452.466 137.979,452.568 137.475,452.773 C136.971,452.978 136.529,453.327 136.148,453.819 C135.767,454.311 135.456,454.968 135.216,455.788 C134.976,456.608 134.826,457.64 134.768,458.882 L142.924,458.882 C142.948,458.647 142.962,458.401 142.968,458.143 C142.974,457.886 142.977,457.645 142.977,457.423 C142.977,456.767 142.907,456.14 142.766,455.542 C142.625,454.944 142.403,454.417 142.098,453.96 C141.793,453.503 141.398,453.14 140.911,452.87 C140.425,452.601 139.825,452.466 139.11,452.466 M156.155,471.169 L150.459,453.274 L148.491,452.782 L148.491,450.884 L157.315,450.884 L157.315,452.782 L154.467,453.274 L157.367,463.698 L158.352,468.093 L159.284,463.716 L162.94,450.884 L166.754,450.884 L170.375,463.698 L171.325,468.04 L172.379,463.733 L175.192,453.31 L172.45,452.782 L172.45,450.884 L180.184,450.884 L180.184,452.782 L178.11,453.274 L172.696,471.169 L168.916,471.169 L165.067,458.126 L164.223,454.188 L163.59,458.126 L159.793,471.169 L156.155,471.169 M181.393,470.888 L181.393,468.954 L184.293,468.655 L184.293,454.03 L181.832,453.257 L181.832,451.147 L187.194,450.427 L187.282,450.427 L188.213,451.13 L188.213,468.673 L191.061,468.954 L191.061,470.888 L181.393,470.888 M185.682,447.104 C185.342,447.104 185.032,447.043 184.75,446.92 C184.469,446.797 184.229,446.627 184.03,446.41 C183.83,446.193 183.678,445.935 183.573,445.637 C183.467,445.338 183.414,445.018 183.414,444.679 C183.414,444.304 183.47,443.946 183.581,443.606 C183.693,443.267 183.857,442.965 184.074,442.701 C184.29,442.437 184.563,442.227 184.891,442.068 C185.219,441.91 185.6,441.831 186.034,441.831 L186.051,441.831 C186.438,441.831 186.778,441.901 187.071,442.042 C187.364,442.183 187.61,442.367 187.809,442.596 C188.008,442.824 188.16,443.085 188.266,443.378 C188.371,443.671 188.424,443.976 188.424,444.292 C188.424,444.69 188.368,445.06 188.257,445.399 C188.146,445.739 187.976,446.035 187.747,446.287 C187.519,446.539 187.235,446.738 186.895,446.885 C186.555,447.031 186.157,447.104 185.7,447.104 L185.682,447.104 M194.467,469.763 L194.467,465.157 L196.963,465.157 L197.684,467.759 C197.789,467.946 197.971,468.131 198.229,468.312 C198.487,468.494 198.791,468.658 199.143,468.805 C199.494,468.951 199.887,469.068 200.321,469.156 C200.754,469.244 201.205,469.288 201.674,469.288 C202.401,469.288 202.998,469.209 203.467,469.051 C203.936,468.893 204.305,468.685 204.575,468.427 C204.844,468.169 205.029,467.867 205.128,467.521 C205.228,467.176 205.278,466.821 205.278,466.458 C205.278,466.001 205.175,465.588 204.97,465.219 C204.765,464.85 204.451,464.498 204.03,464.164 C203.608,463.83 203.066,463.502 202.404,463.18 C201.742,462.857 200.953,462.52 200.039,462.169 C199.09,461.806 198.27,461.419 197.578,461.009 C196.887,460.599 196.313,460.139 195.856,459.629 C195.399,459.119 195.062,458.551 194.845,457.924 C194.628,457.297 194.52,456.585 194.52,455.788 C194.52,454.979 194.704,454.25 195.074,453.6 C195.443,452.949 195.952,452.39 196.603,451.921 C197.253,451.452 198.021,451.092 198.906,450.84 C199.79,450.588 200.748,450.462 201.78,450.462 C202.506,450.462 203.174,450.506 203.784,450.594 C204.393,450.682 204.944,450.787 205.436,450.91 C205.928,451.033 206.359,451.159 206.728,451.288 C207.097,451.417 207.393,451.517 207.616,451.587 L207.616,455.981 L205.278,455.964 L204.504,453.696 C204.352,453.392 204.021,453.107 203.511,452.844 C203.001,452.58 202.348,452.448 201.551,452.448 C200.942,452.436 200.42,452.495 199.987,452.624 C199.553,452.753 199.201,452.929 198.932,453.151 C198.662,453.374 198.463,453.635 198.334,453.934 C198.205,454.232 198.141,454.552 198.141,454.892 C198.141,455.524 198.276,456.04 198.545,456.438 C198.815,456.837 199.169,457.177 199.609,457.458 C200.048,457.739 200.549,457.985 201.112,458.196 C201.674,458.407 202.248,458.642 202.834,458.899 C203.643,459.251 204.413,459.62 205.146,460.007 C205.878,460.393 206.526,460.836 207.088,461.334 C207.651,461.832 208.099,462.412 208.433,463.074 C208.767,463.736 208.934,464.518 208.934,465.421 C208.934,466.311 208.761,467.12 208.415,467.847 C208.07,468.573 207.569,469.191 206.912,469.701 C206.256,470.211 205.456,470.603 204.513,470.879 C203.57,471.154 202.506,471.292 201.323,471.292 C200.69,471.292 200.034,471.239 199.354,471.134 C198.674,471.028 198.021,470.899 197.394,470.747 C196.767,470.595 196.199,470.428 195.689,470.246 C195.179,470.064 194.772,469.903 194.467,469.763 M212.299,470.888 L212.299,468.954 L214.426,468.655 L214.426,444.134 L211.543,443.817 L211.543,442.147 L217.379,441.356 L217.467,441.356 L218.328,441.972 L218.346,450.075 L218.205,453.257 C218.534,452.964 218.944,452.653 219.436,452.325 C219.928,451.997 220.479,451.692 221.088,451.411 C221.698,451.13 222.351,450.898 223.048,450.717 C223.745,450.535 224.463,450.444 225.201,450.444 C226.338,450.444 227.276,450.605 228.014,450.928 C228.752,451.25 229.341,451.751 229.781,452.431 C230.22,453.11 230.528,453.977 230.703,455.032 C230.879,456.087 230.967,457.341 230.967,458.794 L230.967,468.655 L233.551,468.954 L233.551,470.888 L224.709,470.888 L224.709,468.989 L227.047,468.673 L227.047,458.776 C227.047,457.839 227.003,457.018 226.915,456.315 C226.827,455.612 226.655,455.026 226.397,454.558 C226.139,454.089 225.773,453.737 225.298,453.503 C224.824,453.268 224.2,453.151 223.426,453.151 C222.571,453.151 221.689,453.298 220.781,453.591 C219.872,453.884 219.061,454.294 218.346,454.821 L218.346,468.655 L220.895,468.954 L220.895,470.888 L212.299,470.888 M259.723,471.292 C257.742,471.292 255.982,470.958 254.441,470.29 C252.9,469.622 251.602,468.682 250.547,467.469 C249.492,466.256 248.69,464.8 248.139,463.101 C247.588,461.401 247.313,459.515 247.313,457.44 C247.313,455.448 247.653,453.623 248.332,451.965 C249.012,450.307 249.944,448.874 251.127,447.667 C252.311,446.46 253.697,445.522 255.284,444.854 C256.872,444.186 258.575,443.852 260.391,443.852 C261.164,443.852 261.935,443.896 262.702,443.984 C263.47,444.072 264.191,444.178 264.865,444.301 C265.538,444.424 266.151,444.55 266.701,444.679 C267.252,444.808 267.692,444.901 268.02,444.96 L267.703,451.165 L265.155,451.165 L264.135,447.104 C263.83,446.765 263.309,446.489 262.571,446.278 C261.832,446.067 260.813,445.962 259.512,445.962 C258.422,445.962 257.42,446.202 256.506,446.683 C255.592,447.163 254.804,447.869 254.142,448.801 C253.48,449.732 252.964,450.881 252.595,452.246 C252.226,453.611 252.041,455.185 252.041,456.966 C252.041,458.501 252.188,460.001 252.481,461.466 C252.774,462.931 253.234,464.234 253.861,465.377 C254.488,466.519 255.296,467.439 256.286,468.137 C257.277,468.834 258.469,469.183 259.864,469.183 C260.508,469.183 261.068,469.15 261.542,469.086 C262.017,469.021 262.43,468.934 262.782,468.822 C263.133,468.711 263.432,468.57 263.678,468.4 C263.924,468.23 264.141,468.04 264.328,467.829 L265.963,464.366 L268.231,464.718 L267.369,469.903 C266.889,469.927 266.423,470.012 265.972,470.158 C265.521,470.305 265.011,470.463 264.443,470.633 C263.874,470.803 263.215,470.955 262.465,471.09 C261.715,471.225 260.801,471.292 259.723,471.292 M271.035,465.614 C271.035,464.77 271.194,464.018 271.51,463.355 C271.826,462.693 272.26,462.11 272.811,461.606 C273.362,461.102 274.009,460.675 274.753,460.323 C275.497,459.972 276.3,459.685 277.161,459.462 C278.023,459.239 278.919,459.075 279.851,458.97 C280.783,458.864 281.705,458.8 282.619,458.776 L282.619,457.845 C282.619,457.024 282.561,456.33 282.444,455.762 C282.326,455.193 282.124,454.73 281.837,454.373 C281.55,454.016 281.166,453.758 280.686,453.6 C280.205,453.441 279.596,453.362 278.858,453.362 C278.225,453.362 277.592,453.421 276.959,453.538 C276.326,453.655 275.72,453.799 275.14,453.969 C274.56,454.139 274.027,454.32 273.54,454.514 C273.054,454.707 272.647,454.886 272.319,455.05 L272.301,455.05 L271.51,453.362 C271.733,453.151 272.125,452.882 272.688,452.554 C273.25,452.226 273.915,451.909 274.683,451.604 C275.451,451.3 276.277,451.036 277.161,450.813 C278.046,450.591 278.928,450.479 279.807,450.479 C281.037,450.479 282.077,450.605 282.927,450.857 C283.777,451.109 284.465,451.514 284.992,452.07 C285.52,452.627 285.898,453.348 286.126,454.232 C286.355,455.117 286.469,456.198 286.469,457.476 L286.469,468.936 L288.649,468.936 L288.649,470.642 C288.426,470.7 288.159,470.768 287.849,470.844 C287.538,470.92 287.213,470.99 286.873,471.055 C286.534,471.119 286.188,471.175 285.836,471.222 C285.485,471.268 285.151,471.292 284.834,471.292 C284.506,471.292 284.222,471.277 283.982,471.248 C283.742,471.219 283.545,471.143 283.393,471.019 C283.241,470.896 283.126,470.712 283.05,470.466 C282.974,470.22 282.936,469.886 282.936,469.464 L282.936,468.813 C282.784,468.954 282.534,469.162 282.189,469.437 C281.843,469.713 281.418,469.988 280.914,470.264 C280.41,470.539 279.836,470.779 279.192,470.984 C278.547,471.189 277.856,471.292 277.117,471.292 C276.309,471.292 275.538,471.184 274.806,470.967 C274.074,470.75 273.429,470.413 272.872,469.956 C272.316,469.499 271.87,468.91 271.536,468.189 C271.202,467.469 271.035,466.61 271.035,465.614 M278.629,468.602 C278.875,468.602 279.168,468.57 279.508,468.506 C279.848,468.441 280.2,468.351 280.563,468.233 C280.926,468.116 281.286,467.97 281.644,467.794 C282.001,467.618 282.326,467.425 282.619,467.214 L282.619,460.745 C281.213,460.745 280.038,460.868 279.095,461.114 C278.152,461.36 277.399,461.685 276.836,462.09 C276.274,462.494 275.875,462.954 275.641,463.47 C275.407,463.985 275.289,464.524 275.289,465.087 C275.289,465.731 275.374,466.276 275.544,466.722 C275.714,467.167 275.949,467.53 276.247,467.811 C276.546,468.093 276.901,468.295 277.311,468.418 C277.721,468.541 278.16,468.602 278.629,468.602 M290.934,470.888 L290.934,468.954 L293.834,468.655 L293.834,444.134 L290.934,443.817 L290.934,442.147 L296.84,441.356 L296.875,441.356 L297.754,441.972 L297.754,468.655 L300.795,468.954 L300.795,470.888 L290.934,470.888 M312.237,471.292 C310.748,471.292 309.445,471.034 308.326,470.518 C307.206,470.003 306.272,469.282 305.522,468.356 C304.772,467.431 304.209,466.326 303.834,465.043 C303.459,463.76 303.272,462.351 303.272,460.815 C303.272,459.257 303.506,457.836 303.975,456.553 C304.444,455.269 305.097,454.168 305.935,453.248 C306.773,452.328 307.766,451.616 308.914,451.112 C310.063,450.608 311.317,450.356 312.676,450.356 C314.891,450.356 316.608,450.957 317.826,452.158 C319.045,453.359 319.707,455.138 319.813,457.493 C319.825,458.255 319.819,458.92 319.795,459.488 C319.772,460.057 319.713,460.558 319.619,460.991 L307.455,460.991 L307.455,461.097 C307.502,462.433 307.696,463.575 308.035,464.524 C308.375,465.474 308.818,466.25 309.363,466.853 C309.908,467.457 310.532,467.896 311.235,468.172 C311.938,468.447 312.67,468.585 313.432,468.585 C313.936,468.585 314.446,468.538 314.961,468.444 C315.477,468.351 315.972,468.227 316.447,468.075 C316.921,467.923 317.355,467.747 317.747,467.548 C318.14,467.349 318.465,467.149 318.723,466.95 L319.461,468.673 C319.121,469.013 318.691,469.341 318.169,469.657 C317.648,469.974 317.068,470.252 316.429,470.492 C315.79,470.732 315.114,470.926 314.399,471.072 C313.684,471.219 312.963,471.292 312.237,471.292 M311.797,452.466 C311.211,452.466 310.666,452.568 310.162,452.773 C309.659,452.978 309.216,453.327 308.835,453.819 C308.454,454.311 308.144,454.968 307.904,455.788 C307.663,456.608 307.514,457.64 307.455,458.882 L315.612,458.882 C315.635,458.647 315.65,458.401 315.656,458.143 C315.661,457.886 315.664,457.645 315.664,457.423 C315.664,456.767 315.594,456.14 315.453,455.542 C315.313,454.944 315.09,454.417 314.785,453.96 C314.481,453.503 314.085,453.14 313.599,452.87 C313.113,452.601 312.512,452.466 311.797,452.466 M323.217,470.888 L323.217,468.954 L325.573,468.655 L325.573,454.03 L323.112,453.257 L323.112,451.147 L328.121,450.427 L328.209,450.427 L329.071,451.13 L329.071,452.501 L329.035,453.257 C329.422,452.905 329.9,452.562 330.468,452.228 C331.036,451.894 331.643,451.596 332.287,451.332 C332.932,451.068 333.594,450.854 334.274,450.69 C334.953,450.526 335.604,450.444 336.225,450.444 C337.385,450.444 338.34,450.602 339.09,450.919 C339.84,451.235 340.429,451.733 340.857,452.413 C341.284,453.093 341.58,453.957 341.744,455.006 C341.909,456.055 341.991,457.317 341.991,458.794 L341.991,468.655 L344.592,468.954 L344.592,470.888 L335.75,470.888 L335.75,468.954 L338.071,468.655 L338.071,458.776 C338.071,457.839 338.03,457.018 337.948,456.315 C337.866,455.612 337.699,455.026 337.447,454.558 C337.195,454.089 336.834,453.737 336.366,453.503 C335.897,453.268 335.282,453.151 334.52,453.151 C333.629,453.151 332.736,453.312 331.839,453.635 C330.943,453.957 330.16,454.364 329.492,454.856 L329.492,468.655 L331.971,468.954 L331.971,470.888 L323.217,470.888 M354.926,471.292 C353.883,471.292 352.887,471.09 351.938,470.685 C350.989,470.281 350.154,469.669 349.433,468.849 C348.712,468.028 348.138,466.997 347.71,465.755 C347.283,464.513 347.069,463.048 347.069,461.36 C347.069,459.813 347.306,458.369 347.781,457.027 C348.255,455.685 348.938,454.519 349.828,453.529 C350.719,452.539 351.8,451.763 353.072,451.2 C354.343,450.638 355.776,450.356 357.369,450.356 C357.932,450.356 358.486,450.386 359.031,450.444 C359.576,450.503 360.094,450.579 360.586,450.673 L360.586,444.116 L357.123,443.782 L357.123,442.112 L363.539,441.356 L363.627,441.356 L364.506,441.972 L364.506,468.778 L366.598,468.778 L366.598,470.642 C366.106,470.77 365.529,470.911 364.867,471.063 C364.204,471.216 363.504,471.292 362.766,471.292 C362.45,471.292 362.174,471.271 361.94,471.23 C361.705,471.189 361.506,471.102 361.342,470.967 C361.178,470.832 361.055,470.642 360.973,470.395 C360.891,470.149 360.85,469.827 360.85,469.429 L360.85,468.655 C360.545,468.972 360.194,469.288 359.795,469.604 C359.397,469.921 358.951,470.202 358.459,470.448 C357.967,470.694 357.428,470.896 356.842,471.055 C356.256,471.213 355.617,471.292 354.926,471.292 M356.561,468.602 C357.03,468.602 357.469,468.544 357.879,468.427 C358.289,468.31 358.664,468.163 359.004,467.987 C359.344,467.811 359.649,467.618 359.918,467.407 C360.188,467.196 360.41,466.997 360.586,466.81 L360.586,453.485 C360.504,453.345 360.355,453.207 360.138,453.072 C359.921,452.937 359.658,452.817 359.347,452.712 C359.036,452.606 358.694,452.524 358.319,452.466 C357.944,452.407 357.545,452.378 357.123,452.378 C356.338,452.378 355.6,452.527 354.909,452.826 C354.217,453.125 353.611,453.605 353.089,454.268 C352.568,454.93 352.152,455.791 351.841,456.852 C351.531,457.912 351.364,459.204 351.34,460.727 C351.317,462.099 351.437,463.279 351.701,464.269 C351.964,465.26 352.333,466.077 352.808,466.722 C353.283,467.366 353.842,467.841 354.487,468.145 C355.131,468.45 355.823,468.602 356.561,468.602 M369.364,465.614 C369.364,464.77 369.522,464.018 369.838,463.355 C370.155,462.693 370.588,462.11 371.139,461.606 C371.69,461.102 372.337,460.675 373.081,460.323 C373.826,459.972 374.628,459.685 375.49,459.462 C376.351,459.239 377.247,459.075 378.179,458.97 C379.111,458.864 380.034,458.8 380.948,458.776 L380.948,457.845 C380.948,457.024 380.889,456.33 380.772,455.762 C380.655,455.193 380.452,454.73 380.165,454.373 C379.878,454.016 379.494,453.758 379.014,453.6 C378.534,453.441 377.924,453.362 377.186,453.362 C376.553,453.362 375.92,453.421 375.287,453.538 C374.655,453.655 374.048,453.799 373.468,453.969 C372.888,454.139 372.355,454.32 371.868,454.514 C371.382,454.707 370.975,454.886 370.647,455.05 L370.629,455.05 L369.838,453.362 C370.061,453.151 370.453,452.882 371.016,452.554 C371.578,452.226 372.243,451.909 373.011,451.604 C373.779,451.3 374.605,451.036 375.49,450.813 C376.374,450.591 377.256,450.479 378.135,450.479 C379.366,450.479 380.406,450.605 381.255,450.857 C382.105,451.109 382.793,451.514 383.321,452.07 C383.848,452.627 384.226,453.348 384.454,454.232 C384.683,455.117 384.797,456.198 384.797,457.476 L384.797,468.936 L386.977,468.936 L386.977,470.642 C386.754,470.7 386.488,470.768 386.177,470.844 C385.867,470.92 385.541,470.99 385.201,471.055 C384.862,471.119 384.516,471.175 384.164,471.222 C383.813,471.268 383.479,471.292 383.162,471.292 C382.834,471.292 382.55,471.277 382.31,471.248 C382.07,471.219 381.873,471.143 381.721,471.019 C381.569,470.896 381.454,470.712 381.378,470.466 C381.302,470.22 381.264,469.886 381.264,469.464 L381.264,468.813 C381.112,468.954 380.863,469.162 380.517,469.437 C380.171,469.713 379.746,469.988 379.242,470.264 C378.739,470.539 378.164,470.779 377.52,470.984 C376.875,471.189 376.184,471.292 375.446,471.292 C374.637,471.292 373.867,471.184 373.134,470.967 C372.402,470.75 371.757,470.413 371.201,469.956 C370.644,469.499 370.199,468.91 369.865,468.189 C369.531,467.469 369.364,466.61 369.364,465.614 M376.957,468.602 C377.203,468.602 377.496,468.57 377.836,468.506 C378.176,468.441 378.528,468.351 378.891,468.233 C379.254,468.116 379.615,467.97 379.972,467.794 C380.329,467.618 380.655,467.425 380.948,467.214 L380.948,460.745 C379.541,460.745 378.367,460.868 377.423,461.114 C376.48,461.36 375.727,461.685 375.164,462.09 C374.602,462.494 374.203,462.954 373.969,463.47 C373.735,463.985 373.617,464.524 373.617,465.087 C373.617,465.731 373.702,466.276 373.872,466.722 C374.042,467.167 374.277,467.53 374.576,467.811 C374.874,468.093 375.229,468.295 375.639,468.418 C376.049,468.541 376.489,468.602 376.957,468.602 M389.596,470.888 L389.596,468.954 L392.461,468.655 L392.461,454.03 L390,453.257 L390,451.147 L394.957,450.427 L395.045,450.427 L395.871,451.13 L395.871,452.185 L395.854,454.382 L395.889,454.382 C395.983,454.229 396.2,453.934 396.539,453.494 C396.879,453.055 397.33,452.603 397.893,452.141 C398.455,451.678 399.12,451.265 399.888,450.901 C400.656,450.538 401.502,450.356 402.428,450.356 C402.698,450.356 402.92,450.371 403.096,450.4 C403.272,450.43 403.424,450.468 403.553,450.515 L403.553,454.821 C403.506,454.786 403.418,454.748 403.289,454.707 C403.16,454.666 403.005,454.628 402.824,454.593 C402.642,454.558 402.443,454.525 402.226,454.496 C402.009,454.467 401.784,454.452 401.549,454.452 C400.237,454.452 399.173,454.584 398.359,454.848 C397.544,455.111 396.885,455.425 396.381,455.788 L396.381,468.655 L401.162,468.989 L401.162,470.888 L389.596,470.888 Z" style="stroke:none;fill-rule:nonzero;fill:#000000;fill-opacity:1;"/>
        </g>
    </g>
</svg>
